<svg version="1.1" xmlns="http://www.w3.org/2000/svg" xmlns:xlink="http://www.w3.org/1999/xlink" x="0px" y="0px"
	 viewBox="0 0 523 213" style="enable-background:new 0 0 523 213;" xml:space="preserve">
<style type="text/css">
	.st0{fill:#020202;}
	.st1{fill:#1D1D1B;}
	.st2{fill:#548D95;}
</style>
<g>
	<path class="st0" d="M76.72,0.36c24.06,0,40.25,0.46,49.5,1.85c12.95,1.85,20.82,7.86,23.59,18.5c1.85,7.4,2.78,19.43,2.78,36.55
		s-0.93,29.61-2.78,37.01c-2.78,10.64-10.64,16.65-23.59,18.5c-8.79,1.39-25.44,1.85-49.04,1.85c-24.06,0-40.71-0.46-49.5-1.85
		c-12.95-1.85-20.82-7.86-23.59-18.5c-2.78-7.4-3.7-19.89-3.7-37.47c0-16.65,0.93-28.68,2.78-36.08C5.94,10.08,13.8,4.07,26.75,2.22
		C36.01,0.83,52.66,0.36,76.72,0.36 M76.72,29.51c-18.04,0-28.68,0.46-32.38,1.39c-4.16,0.93-6.94,3.24-8.33,6.94
		c-1.39,3.7-1.85,11.1-1.85,22.21c0,6.48,0.46,11.57,0.93,14.34c1.39,5.55,5.55,8.79,12.03,9.72c5.09,0.46,14.8,0.93,29.15,0.93
		c13.42,0,22.67-0.46,27.29-0.93s7.86-1.39,10.18-3.24c1.85-1.39,3.24-3.7,4.16-6.48c0.93-2.78,0.93-7.86,0.93-14.34
		c0-7.86-0.46-13.88-0.93-17.58c-0.46-3.7-1.39-6.48-2.78-8.33c-1.85-2.31-4.63-3.7-8.79-4.16C102.16,29.51,92.45,29.51,76.72,29.51
		 M156.75,1.75h46.26l34.23,38.86l34.23-38.86h46.73l-53.2,55.05l55.98,55.98h-47.65L237.25,73l-36.08,39.79h-48.58l56.9-55.98
		L156.75,1.75z M327.92,1.75h35.16v111.03h-35.16V1.75z M378.81,112.78V1.75h80.03c14.34,0,23.59,0,27.76,0.46
		c4.16,0,8.79,0.93,13.88,1.85c11.1,2.31,18.5,8.79,21.74,18.97c1.39,3.7,1.85,7.86,2.31,12.49C525,40.15,525,46.63,525,55.88
		c0,9.72-0.46,17.58-0.93,22.67c-0.46,5.09-1.39,9.72-2.78,13.88c-3.24,9.72-10.18,15.73-20.36,18.04
		c-4.63,0.93-10.18,1.85-15.27,2.31c-5.55,0.46-14.34,0.46-26.83,0.46h-80.03V112.78z M412.12,84.56h47.19
		c8.79,0,14.8-0.46,18.97-0.93c4.16-0.46,6.94-1.39,8.79-2.78c1.85-1.39,3.24-4.16,3.7-7.4c0.93-3.24,0.93-8.79,0.93-15.27
		c0-6.94-0.46-12.03-0.93-15.73c-0.46-3.7-1.85-6.01-3.24-7.86c-1.85-1.85-4.63-3.24-7.86-3.7c-3.7-0.46-10.18-0.93-20.82-0.93
		h-46.73V84.56z"/>
	<path class="st1" d="M339.15,136.39h19.18l14.2,76.15h-15.51l-2.54-16.08h-11.19l-2.63,16.08h-15.89L339.15,136.39z M352.88,186.4
		l-4.04-29.71l-4.04,29.71H352.88z"/>
	<path class="st1" d="M380.24,136.39h25.57c13.63,0,20.02,7.99,20.02,22.09c0,17.58-9.68,21.72-22,21.72h-6.77v32.34h-16.83V136.39z
		 M402.7,168.44c6.2,0,7.33-3.29,7.33-10.25c0-5.73-0.66-9.97-7.43-9.97h-5.55v20.21H402.7z"/>
	<path class="st1" d="M433.91,136.39h34.22v11.47h-17.39v18.9H464v11.66h-13.26v22.75h17.58v11.38h-34.41V136.39z"/>
	<path class="st1" d="M484.87,212.54h-13.91l14.76-40.99l-14.1-35.16h15.89l15.79,39.58L484.87,212.54z"/>
	<polygon class="st2" points="504.63,154.69 510.65,136.39 523.1,136.39 511.23,171.58 	"/>
	<polygon class="st2" points="511.23,177.34 523.1,212.54 510.65,212.54 503.94,192.12 	"/>
</g>
</svg>
