<?xml version="1.0" encoding="utf-8"?>
<!-- Generator: Adobe Illustrator 26.2.1, SVG Export Plug-In . SVG Version: 6.00 Build 0)  -->
<svg version="1.1" id="Ebene_1" xmlns="http://www.w3.org/2000/svg" xmlns:xlink="http://www.w3.org/1999/xlink" x="0px" y="0px"
	 viewBox="0 0 547.91 237.73" style="enable-background:new 0 0 547.91 237.73;" xml:space="preserve">
<style type="text/css">
	.st0{fill:#E1201F;}
</style>
<g>
	<path d="M49.11,125.55c-6.58-2.12-12.26-4.65-17.01-7.59c-1.1-0.71-3.75-2.18-7.96-4.41c-4.21-2.23-7.45-4.09-9.74-5.56
		c-2.29-1.47-4.8-3.89-7.54-7.24c-2.74-3.36-4.76-7.15-6.04-11.39C0.28,87,0,83.76,0,79.64c0-4.12,0.36-7.53,1.1-10.24
		c2.38-8.24,7.31-15.74,14.81-22.52c7.5-6.77,17.1-12.45,28.81-17.04c3.47-1.29,9.55-3.32,18.24-6.09
		c8.68-2.76,14.31-4.44,16.87-5.03c7.13-1.65,16-2.53,26.61-2.65c10.24-0.23,17.92,0.24,23.04,1.41c6.04,1.18,11.98,3.27,17.83,6.27
		c5.85,3,10.1,5.42,12.76,7.24c2.65,1.83,3.98,2.62,3.98,2.38c0-0.47-0.64-1.91-1.92-4.33c-1.28-2.41-2.38-4.09-3.29-5.03
		c-1.47-2-3.34-3.5-5.62-4.5c-2.29-1-4.3-1.56-6.04-1.68c-1.74-0.12-3.25-0.27-4.53-0.44c-1.28-0.18-1.92-0.53-1.92-1.06
		s0.64-0.85,1.92-0.97c5.85-0.35,10.79,0.77,14.81,3.36c4.21,2.47,7.59,7.24,10.15,14.3c0.73,2,1.23,3.24,1.51,3.71
		c0.27,0.47,0.96,0.94,2.06,1.41c8.05,3.53,13.4,8.92,16.05,16.16c2.65,7.24,2.92,14.6,0.82,22.07c-2.1,7.48-5.72,14.22-10.84,20.22
		c-3.66,4.48-8.5,8.8-14.54,12.98c-6.04,4.18-12.07,7.45-18.11,9.8c-1.1,0.35-3.89,1.71-8.37,4.06c-4.48,2.36-8.64,4.33-12.48,5.92
		c-3.84,1.59-9.46,3-16.87,4.24c-7.41,1.24-15.32,1.5-23.73,0.79c-4.94-0.35-9.15-0.94-12.62-1.77c-3.48-0.82-7.64-2.12-12.48-3.88
		C53.18,126.97,50.21,125.91,49.11,125.55z M40.88,34.43C17.1,44.91,4.67,59.33,3.57,77.7c-0.73,12.36,4.39,22.37,15.36,30.02
		c1.83,1.3,2.65,1.71,2.47,1.24c0-0.23-0.18-0.59-0.55-1.06c-2.38-2.71-4.85-6.53-7.41-11.48c-0.92-1.65-1.65-3.24-2.19-4.77
		c-0.55-1.53-0.96-2.94-1.23-4.24c-0.27-1.29-0.37-2.71-0.27-4.24c0.09-1.53,0.18-2.79,0.27-3.8c0.09-1,0.41-2.27,0.96-3.8
		c0.55-1.53,1-2.68,1.37-3.44c0.36-0.76,0.96-1.91,1.78-3.44c0.82-1.53,1.46-2.62,1.92-3.27c0.45-0.65,1.19-1.77,2.19-3.36
		c1-1.59,1.69-2.62,2.06-3.09c7.13-10.83,14.99-19.13,23.59-24.9c1.65-1.18,2.38-1.79,2.19-1.85
		C45.91,32.17,44.17,32.91,40.88,34.43z M20.58,100.57c0.91,1.59,1.96,2.97,3.15,4.15c1.19,1.18,2.88,2.65,5.08,4.41
		c2.19,1.77,3.38,2.65,3.57,2.65c-0.18-0.47-0.41-0.94-0.69-1.41c-0.27-0.47-0.6-0.94-0.96-1.41c-0.73-1.18-1.42-2.5-2.06-3.97
		c-0.64-1.47-1.33-2.85-2.06-4.15c-0.73-1.29-1.47-2.53-2.19-3.71c-1.47-1.88-2.65-3.89-3.57-6c-0.92-2.12-1.56-3.97-1.92-5.56
		c-0.37-1.59-0.64-3.06-0.82-4.41c-0.18-1.35-0.32-2.35-0.41-3c-0.09-0.65-0.23-0.91-0.41-0.79c-0.18,0-0.32,0.35-0.41,1.06
		c-0.09,0.71-0.14,1.68-0.14,2.91c0,1.24,0,2.62,0,4.15c0,1.53,0.18,3.18,0.55,4.94c0.36,1.77,0.78,3.5,1.23,5.21
		C18.98,97.33,19.66,98.98,20.58,100.57z M24.69,91.12c0.73-8.12,1.28-12.95,1.65-14.48c1.28-5.41,3.47-10.53,6.58-15.36
		c3.11-4.83,6.04-8.48,8.78-10.95c2.74-2.47,5.62-4.88,8.64-7.24c3.02-2.35,4.71-3.71,5.08-4.06l-1.65,0.71
		c-3.29,1.41-6.91,3.27-10.84,5.56c-3.94,2.3-7.45,4.68-10.56,7.15c-3.11,2.47-5.21,4.59-6.31,6.36
		c-5.86,8.59-6.77,18.31-2.74,29.14L24.69,91.12z M163.51,54.92c-2.01-4.35-4.94-8.24-8.78-11.65c-5.31-4.83-14.59-8.56-27.85-11.21
		c-13.26-2.65-26.75-2.91-40.47-0.79c-5.49,0.94-9.56,1.74-12.21,2.38c-2.65,0.65-5.08,1.47-7.27,2.47c-2.19,1-5.03,2.62-8.5,4.86
		C43.07,50.74,33.65,62.4,30.18,75.93c-1.1,3.65-1.65,7.77-1.65,12.36s0.45,8.01,1.37,10.24c1.1,2.59,3.79,5.36,8.09,8.3
		c4.3,2.94,9.55,5.65,15.77,8.12c6.22,2.47,13.44,4.39,21.67,5.74c8.23,1.35,16.19,1.68,23.87,0.97c0.36,0,1.69-0.15,3.98-0.44
		c2.28-0.29,4.21-0.59,5.76-0.88c1.55-0.29,3.93-0.91,7.13-1.85c3.2-0.94,6.54-2.18,10.01-3.71c11.7-5.06,20.67-10.98,26.89-17.75
		c6.22-6.77,10.06-14.86,11.52-24.28C165.7,65.1,165.34,59.16,163.51,54.92z M33.75,107.37c0,0.24,0.55,1.06,1.65,2.47
		c1.1,1.41,2.51,2.94,4.25,4.59c1.74,1.65,3.24,2.77,4.53,3.35c3.11,1.18,8.96,2.41,17.56,3.71l6.31,0.71
		c-0.18-0.12-1.28-0.47-3.29-1.06c-4.57-1.18-8.78-2.5-12.62-3.97c-3.84-1.47-6.86-2.83-9.05-4.06c-2.19-1.24-4.03-2.35-5.49-3.36
		c-1.47-1-2.47-1.71-3.02-2.12C34.02,107.22,33.75,107.13,33.75,107.37z M110.29,22.07c-4.39-0.71-9.37-1.03-14.95-0.97
		c-5.58,0.06-10.29,0.5-14.13,1.32c-5.86,1.41-13.26,4.39-22.22,8.92c-8.96,4.53-15.36,8.45-19.2,11.74
		c-0.92,0.83-1.23,1.21-0.96,1.15c0.27-0.06,1.78-0.85,4.53-2.38c7.31-4,17.1-7.71,29.35-11.13c12.8-3.53,24.78-5.3,35.94-5.3
		c3.11,0,5.94,0.09,8.5,0.26c2.56,0.18,4.25,0.3,5.08,0.35c0.82,0.06,1.32,0.03,1.51-0.09c-0.55-0.23-1.14-0.47-1.78-0.71
		c-0.64-0.23-1.33-0.47-2.06-0.71c-0.73-0.23-1.56-0.47-2.47-0.71c-0.92-0.23-1.78-0.47-2.61-0.71c-0.82-0.23-1.65-0.44-2.47-0.62
		C111.52,22.34,110.84,22.19,110.29,22.07z M105.62,126.44c6.04-0.82,12.8-2.12,20.3-3.89c7.5-1.77,12.53-3.59,15.09-5.47
		c2.92-2,4.29-3.06,4.12-3.18c0-0.12-1.19,0.3-3.57,1.24c-7.5,3.42-13.63,5.71-18.38,6.89c-6.58,1.65-17.38,3-32.37,4.06
		c-12.44,0.94-24.96,0.06-37.58-2.65c-0.37-0.12-0.55-0.15-0.55-0.09c0,0.06,0.27,0.21,0.82,0.44c2.37,1.3,9.6,2.53,21.67,3.71
		c0.73,0,2.7,0.03,5.9,0.09c3.2,0.06,7.31,0,12.35-0.18C98.44,127.23,102.51,126.91,105.62,126.44z M67.49,129.26l6.86,1.59
		c17.56,2.94,33.47,1.71,47.73-3.71c2.19-0.82,3.47-1.35,3.84-1.59l-2.47,0.18c-0.55,0.12-1.47,0.3-2.74,0.53
		c-5.67,1.3-11.38,2.24-17.15,2.83c-5.76,0.59-10.7,0.91-14.81,0.97c-4.12,0.06-7.82,0-11.11-0.18s-5.81-0.35-7.54-0.53
		C68.36,129.17,67.49,129.15,67.49,129.26z M146.09,28.25c-2.65-1.65-6.68-3.47-12.07-5.47c-5.4-2-11.11-3.36-17.15-4.06
		c-5.12-0.35-9.7-0.41-13.72-0.18c0.18,0.12,1.78,0.38,4.8,0.79c3.02,0.41,6.81,1.24,11.39,2.47c4.57,1.24,8.78,2.91,12.62,5.03
		c1.1,0.71,2.65,1.24,4.66,1.59l12.62,2.3C149.79,30.73,148.74,29.9,146.09,28.25z M128.67,117.78c0.55-0.12,0.82-0.29,0.82-0.53
		l-0.82,0.18c-0.73,0.24-1.1,0.41-1.1,0.53L128.67,117.78z M131.14,116.73l5.76-2.12c4.02-1.77,7.41-3.65,10.15-5.65l-1.65,0.71
		c-1.47,0.83-3.2,1.74-5.21,2.74c-2.01,1-3.94,1.92-5.76,2.74C132.6,115.96,131.5,116.49,131.14,116.73z M145.68,34.26l-2.47-0.88
		c0.18,0.24,1.46,0.88,3.84,1.94l3.02,1.24C149.52,36.2,148.05,35.44,145.68,34.26z M184.63,55.63c-0.55-1.06-1.1-2.12-1.65-3.18
		c-0.55-1.06-1.14-2-1.78-2.83c-0.64-0.82-1.33-1.59-2.06-2.3c-0.73-0.71-1.47-1.38-2.19-2.03c-0.73-0.65-1.47-1.21-2.19-1.68
		c-0.73-0.47-1.37-0.91-1.92-1.32c-0.55-0.41-1.05-0.73-1.51-0.97c-0.46-0.23-0.96-0.53-1.51-0.88c0,0.24,0.23,2.5,0.69,6.8
		c0.45,4.3,0.69,7.09,0.69,8.39c0,1.3,0.14,3.88,0.41,7.77c0.27,3.88,0.32,6.83,0.14,8.83c-0.18,2-0.46,4.56-0.82,7.68
		c-0.37,3.12-0.96,5.83-1.78,8.12c-0.82,2.3-1.88,4.44-3.15,6.45c-1.28,2.24-2.74,4.41-4.39,6.53c-1.65,2.12-3.11,3.89-4.39,5.3
		c-1.28,1.41-2.47,2.68-3.57,3.8c-1.1,1.12-2.19,2.33-3.29,3.62c0,0.12,0.64-0.18,1.92-0.88c1.28-0.71,2.74-1.59,4.39-2.65
		s3.02-2,4.12-2.83c7.31-5.3,12.89-10.83,16.73-16.6c3.84-5.77,6.49-12.42,7.96-19.95C186.55,64.81,186.28,59.75,184.63,55.63z
		 M157.2,37.26c-0.55-0.59-1.23-1.24-2.06-1.94c-0.82-0.71-1.69-1.12-2.61-1.24c-0.73-0.12-1.01-0.12-0.82,0l2.47,1.77l3.57,2.3
		C157.93,38.14,157.75,37.85,157.2,37.26z M165.7,40.62c-0.55-1.53-1.37-2.59-2.47-3.18c-1.1-0.47-1.69-0.65-1.78-0.53
		c-0.09,0.12,0.32,0.71,1.23,1.77c1.1,1.41,1.92,2.59,2.47,3.53l1.37,1.59C166.71,43.56,166.43,42.5,165.7,40.62z"/>
	<path d="M204.39,19.07c1.83,0,5.94,3.42,12.35,10.24l3.29,3.18c-0.18-0.23-0.82-1.18-1.92-2.83c-0.73-1.06-1.28-1.88-1.65-2.47
		c-2.01-3.41-2.93-5.3-2.74-5.65c0.18-0.35,0.64-0.53,1.37-0.53c0.73,0,1.28,0.12,1.65,0.35c0.36,0.24,1.41,1.32,3.15,3.27
		c1.74,1.94,4.16,4.62,7.27,8.04c3.11,3.42,6.13,6.65,9.05,9.71c13.72,14.36,20.85,21.66,21.4,21.9c0.18,0,1.83-1.38,4.94-4.15
		c3.11-2.76,6.95-6.27,11.52-10.51c4.57-4.24,9.33-8.53,14.27-12.89c4.94-4.35,9.64-8.33,14.13-11.92c4.48-3.59,7.72-5.85,9.74-6.8
		c2.01-1.06,3.2-0.71,3.57,1.06c0.18,1.06-3.48,5.01-10.97,11.83c-30.91,28.02-44.63,41.09-41.15,39.2
		c2.56-1.29,8.32-6.36,17.28-15.19c5.67-5.65,10.51-10.39,14.54-14.22c4.02-3.82,7-6.59,8.92-8.3c1.92-1.71,3.52-3.09,4.8-4.15
		c1.28-1.06,2.56-2.15,3.84-3.27c1.28-1.12,2.83-2.56,4.66-4.33c2.92-2.83,4.66-4.3,5.21-4.41c0.55-0.12,1.1,0,1.65,0.35
		s0.36,1-0.55,1.94c-1.1,1.3-2.38,2.65-3.84,4.06c-1.65,1.53-2.56,2.77-2.74,3.71c-0.18,0.94-1.28,2.41-3.29,4.41
		c-4.76,4.36-11.02,9.92-18.79,16.69c-7.78,6.77-13.99,12.18-18.66,16.25s-6.82,6.09-6.45,6.09c0.18,0,1.23-0.82,3.15-2.47
		c1.92-1.65,4.84-4.09,8.78-7.33c3.93-3.24,7.72-6.27,11.39-9.09c4.39-3.41,8.82-7,13.3-10.77c4.48-3.77,7.54-6.3,9.19-7.59
		c1.65-1.29,2.83-1.94,3.57-1.94c1.46,0,2.19,0.47,2.19,1.41c0,0.35-2.38,2.41-7.13,6.18c-4.21,3.3-9.74,8.39-16.6,15.27
		c-6.86,6.89-12.58,12.89-17.15,18.01c-4.57,5.12-6.95,7.92-7.13,8.39c-0.18,0.35,2.74,3.33,8.78,8.92
		c6.04,5.59,13.67,13.01,22.91,22.25c9.23,9.24,16.6,17.45,22.08,24.63c4.02,5.18,5.58,8.12,4.66,8.83
		c-0.55,0.47-1.19,0.62-1.92,0.44c-0.73-0.18-2.01-0.91-3.84-2.21c-6.04-4.12-13.17-9.62-21.4-16.51s-14.63-12.1-19.2-15.63
		l-4.12-2.83l0.27,0.18c2.92,3.53,7.13,7.59,12.62,12.18c7.31,6.36,10.88,9.95,10.7,10.77c-0.18,0.35-0.55,0.65-1.1,0.88h-0.28
		c-0.55,0.24-1.28,0-2.19-0.71c-0.92-0.71-3.93-3.36-9.05-7.95c-10.79-9.65-21.58-19.25-32.37-28.78c0,0.12-2.88,3.24-8.64,9.36
		c-5.76,6.12-11.98,12.27-18.66,18.45c-6.68,6.18-10.84,9.21-12.48,9.09c-2.01-0.23-2.01-1,0-2.29c1.28-0.82,2.92-2.12,4.94-3.89
		c2.01-1.77,4.16-3.74,6.45-5.92c2.28-2.18,4.62-4.47,7-6.89c2.38-2.41,4.66-4.8,6.86-7.15c2.19-2.35,4.16-4.41,5.9-6.18
		c1.74-1.77,3.2-3.29,4.39-4.59c1.19-1.29,1.83-1.97,1.92-2.03c0.09-0.06-1.14-1.21-3.7-3.44c-0.37,0-2.79,2.06-7.27,6.18
		c-4.48,4.12-10.52,9.98-18.11,17.57c-7.59,7.59-14.31,15.04-20.16,22.34c-2.01,2.23-3.43,3.68-4.25,4.33
		c-0.82,0.65-1.6,0.85-2.33,0.62c-1.28-0.59-0.92-2.41,1.1-5.47c4.02-5.65,14.36-16.83,31-33.55l6.04-6.36
		c-1.47,0.94-4.62,3.92-9.46,8.92c-4.85,5-9.56,9.95-14.13,14.83c-4.57,4.89-6.95,7.45-7.13,7.68c-0.55,0.47-1.33,0.71-2.33,0.71
		c-1.01,0-1.6-0.23-1.78-0.71c-0.18-0.47-0.92-0.35-2.19,0.35c-0.92,0.47-2.97,2.15-6.17,5.03c-3.2,2.89-4.8,4.53-4.8,4.94
		c0,0.41-0.37,0.76-1.1,1.06c-0.73,0.29-1.42,0.38-2.06,0.26c-0.64-0.12-1.05-0.35-1.23-0.71c0-0.24,1.51-1.88,4.53-4.94
		c3.02-3.06,6.67-6.71,10.97-10.95c4.29-4.24,7.36-7.59,9.19-10.07c2.56-3.06,5.62-6.56,9.19-10.51c3.57-3.94,6.76-7.33,9.6-10.15
		c2.83-2.83,5.44-5.41,7.82-7.77c2.37-2.35,3.66-3.65,3.84-3.88c0.18-0.35-8.96-9.71-27.43-28.08
		c-13.72-13.54-20.4-21.01-20.03-22.43c0.18-0.35,0.73-0.59,1.65-0.71c0.91-0.12,2.1,0.12,3.57,0.71c2.19,0.94,4.48,2.36,6.86,4.24
		c0.36,0.35,0.82,0.77,1.37,1.24l1.65,1.06c-0.18-0.23-1.28-1.77-3.29-4.59c-1.1-1.29-1.92-2.35-2.47-3.18
		c-7.87-10.36-11.07-15.95-9.6-16.78c1.1-0.82,2.29-0.12,3.57,2.12l0.27,0.53C201.55,16.95,203.29,19.07,204.39,19.07z M219.75,39.2
		c5.67,6.12,8.59,9.18,8.78,9.18c-6.04-7.3-10.66-12.77-13.85-16.42c-3.2-3.65-4.9-5.47-5.08-5.47c-0.18,0,0.41,0.88,1.78,2.65
		c1.37,1.77,2.92,3.65,4.66,5.65C217.78,36.79,219.02,38.26,219.75,39.2z M210.97,118.84h0.27c0.73-0.71,1.23-1.18,1.51-1.41
		c0.27-0.23,0.59-0.56,0.96-0.97c0.36-0.41,0.64-0.68,0.82-0.79l0.82-1.06c-1.28,0.59-2.65,1.83-4.11,3.71
		C211.06,118.55,210.97,118.73,210.97,118.84z M224.14,104.89c0.36,0,1.83-1.35,4.39-4.06c12.25-13.07,18.11-19.78,17.56-20.13
		c-0.37,0-2.56,1.94-6.58,5.83c-4.03,3.89-7.91,7.83-11.66,11.83c-3.75,4-5.35,6.12-4.8,6.36
		C223.59,104.95,223.95,105.01,224.14,104.89z M252.12,69.75c0.36,0,1.55-1,3.57-3c-4.94-4.94-10.52-10.65-16.73-17.13L227.7,37.97
		c-0.18,0.12,1.28,2.59,4.39,7.42c3.11,4.83,5.39,8.12,6.86,9.89c1.65,2,4.16,4.92,7.54,8.74
		C249.88,67.84,251.75,69.75,252.12,69.75z M254.32,72.58c0,0.82,0.82,0.47,2.47-1.06c1.28-1.29,1.55-2,0.82-2.12
		c-0.18,0-0.78,0.44-1.78,1.32C254.82,71.61,254.32,72.22,254.32,72.58z M259.53,73.81c0.91-0.82,1.37-1.29,1.37-1.41
		c0-0.35-0.37-0.18-1.1,0.53l-1.1,1.41C258.88,74.23,259.16,74.05,259.53,73.81z M261.72,66.57c12.62-12.01,23.5-22.13,32.65-30.37
		c2.38-2.24,3.47-3.36,3.29-3.36c-0.73,0-7.18,5.62-19.34,16.86c-12.17,11.24-18.15,17.04-17.97,17.39
		C260.53,67.46,260.99,67.28,261.72,66.57z M268.58,80.35c0-0.23-0.14-0.56-0.41-0.97c-0.27-0.41-0.6-0.76-0.96-1.06
		c-0.37-0.29-0.64-0.44-0.82-0.44c-0.37,0-1.47,0.94-3.29,2.83c1.1,0.94,2.1,1.88,3.02,2.83C267.76,81.76,268.58,80.7,268.58,80.35z
		 M268.03,92.71c0.73,0.71,1.1,0.88,1.1,0.53l-1.37-0.88C267.57,92.36,267.66,92.47,268.03,92.71z M268.58,85.65
		c26.52,22.84,40.88,34.79,43.07,35.85c-4.03-4.35-11.57-11.86-22.63-22.52c-11.07-10.65-16.97-16.04-17.69-16.16
		C271.14,82.82,270.23,83.76,268.58,85.65z M271.05,77.7c0.91-0.94,1.78-1.88,2.61-2.83c0.82-0.94,1.69-1.82,2.61-2.65
		c1.65-2,3.84-4.47,6.58-7.42l4.66-5.3c-0.37,0.12-3.39,2.65-9.05,7.59c-3.84,3.42-7.04,6.24-9.6,8.48l0.27,0.35L271.05,77.7z
		 M269.68,94.12c0.73,0.71,1.1,0.88,1.1,0.53l-1.37-0.88C269.22,93.77,269.31,93.89,269.68,94.12z M271.32,95.53
		c0.73,0.71,1.1,0.88,1.1,0.53l-1.37-0.88C270.87,95.18,270.96,95.3,271.32,95.53z M291.63,109.49c0,0.35,2.19,2.44,6.58,6.27
		c4.39,3.83,7.77,6.56,10.15,8.21c1.83,1.3,2.74,1.83,2.74,1.59l-0.55-0.53c-6.58-5.53-11.38-9.56-14.4-12.1
		C293.13,110.4,291.63,109.25,291.63,109.49z M324,135.97c-0.73-0.94-1.23-1.53-1.51-1.77c-0.27-0.23-0.69-0.23-1.24,0
		c-0.55,0.24,0,1,1.65,2.3c1.65,1.18,2.51,1.77,2.61,1.77C325.6,138.27,325.1,137.5,324,135.97z"/>
	<path d="M356.92,93.59c0,4.94,0.23,9.62,0.69,14.04c0.46,4.42,0.82,7.54,1.1,9.36c0.27,1.83,0.69,3.97,1.23,6.45
		c0.36,2.12,0.5,3.47,0.41,4.06c-0.09,0.59-0.6,0.88-1.51,0.88c-1.47,0-2.56-2.06-3.29-6.18c-0.55-2.94-1.74-8.56-3.57-16.86
		c-1.83-8.3-3.11-14.51-3.84-18.63c-0.73-4.12-1.47-10.42-2.19-18.9c-0.73-8.48-1.1-17.36-1.1-26.67c0-7.53,0.04-11.98,0.14-13.33
		c0.09-1.35,0.41-2.15,0.96-2.38c1.28-0.35,2.56,0.18,3.84,1.59c0.73,0.82,1.05,1.56,0.96,2.21c-0.09,0.65-0.6,0.97-1.51,0.97h-1.37
		l0.55,15.01c0,3.65,0.09,7.27,0.27,10.86c0.18,3.59,0.41,6.83,0.69,9.71c0.28,2.89,0.55,5.68,0.82,8.39
		c0.27,2.71,0.55,5.03,0.82,6.98s0.55,3.68,0.82,5.21c0.27,1.53,0.45,2.68,0.55,3.44c0.09,0.77,0.18,1.18,0.28,1.24
		c0.09,0.06,0.14-1.09,0.14-3.44c0-2.35,0-5.47,0-9.36c0-3.89,0.04-8.18,0.14-12.89c0.09-4.71,0.14-9.48,0.14-14.3
		c0-4.83,0.04-9.3,0.14-13.42c0.09-4.12,0.14-7.62,0.14-10.51c0-2.88,0.09-4.62,0.27-5.21c0-0.82,0.04-1.38,0.14-1.68
		c0.09-0.29,0.18-0.59,0.27-0.88c0.09-0.29,0.23-0.41,0.41-0.35c0.18,0.06,0.45,0.03,0.82-0.09c0.37-0.12,0.82-0.12,1.37,0
		c0,0.71,0.04,4.62,0.14,11.74c0.09,7.12,0.18,12.92,0.27,17.39c0.09,4.48,0.28,9.83,0.55,16.07c0.27,6.24,0.69,11.3,1.23,15.19
		c0.55,3.88,1.19,6.36,1.92,7.42c0.36,0.47,0.45,0.41,0.27-0.18c-1.65-11.65-2.47-21.6-2.47-29.84c0-1.18-0.14-5.18-0.41-12.01
		c-0.27-6.83-0.37-11.92-0.27-15.27c0.09-3.36,0.59-7.77,1.51-13.24c0.91-5.47,2.29-10.15,4.12-14.04c0.73-1.41,1.55-2.12,2.47-2.12
		c0.73,0,1.14,0.21,1.23,0.62c0.09,0.41-0.05,1.15-0.41,2.21c-0.37,1.06-0.78,2.24-1.23,3.53c-0.46,1.3-1.01,3.09-1.65,5.39
		c-0.64,2.3-1.14,4.62-1.51,6.98c-0.18,1.41-0.23,2.24-0.14,2.47c0.09,0.24,0.41,0.35,0.96,0.35c0.91,0,1.55,0.24,1.92,0.71
		c0.73,1.06,1.28,6.95,1.65,17.66c0,1.18,0.18,0.77,0.55-1.24c0.18-1.41,0.55-4.24,1.1-8.48l1.37-8.3c0.18-0.23,0.64-0.32,1.37-0.27
		c0.73,0.06,1.28,0.27,1.65,0.62c0.18,0.35,0.18,1.85,0,4.5c-0.18,2.65,0.09,4.03,0.82,4.15c0.91,0.35,0.91,1.3,0,2.83
		c-0.92,1.53-1.37,11.36-1.37,29.49c0,7.65,0.27,15.07,0.82,22.25c0.55,7.18,1.14,12.77,1.78,16.78c0.64,4,1.14,7.59,1.51,10.77
		c0.36,3.18,0.36,5.42,0,6.71c-0.37,1.3-1.19,2-2.47,2.12c-0.73,0.12-1.19,0.26-1.37,0.44c-0.18,0.18-0.18,0.68,0,1.5
		c1.1,6.36,1.92,10.3,2.47,11.83c0.91,1.77,1.19,2.83,0.82,3.18c-0.18,0.47-0.6,0.65-1.23,0.53c-0.64-0.12-1.23-0.47-1.78-1.06
		c-1.47-1.77-2.65-5.83-3.57-12.18c-0.18-2-0.64-3-1.37-3c-0.73,0-1.28-0.26-1.65-0.79c-0.37-0.53-0.73-1.79-1.1-3.8
		c-0.18-0.47-0.32-0.82-0.41-1.06c-0.09-0.23-0.18-0.62-0.27-1.15c-0.09-0.53-0.23-1.03-0.41-1.5l0.27,3.53
		c0.18,1.3,0.45,2.83,0.82,4.59c0.36,1.77,0.64,3.15,0.82,4.15c0.18,1,0.18,1.56,0,1.68c-0.18,0.35-0.64,0.47-1.37,0.35
		c-0.73-0.12-1.28-0.29-1.65-0.53c-0.73-1.18-2.19-10.71-4.39-28.61l-1.65-12.71C356.73,87.83,356.73,89.94,356.92,93.59z
		 M361.3,90.59l0.28,0.35c0.36-0.35,0.36-0.65,0-0.88L361.3,90.59z M362.4,93.42c0-0.23,0-0.53,0-0.88V93.42z M362.68,49.27
		l0.27,3.18c0-0.12,0-0.29,0-0.53l-0.27-5.65C362.68,46.86,362.68,47.86,362.68,49.27z M362.95,69.05c0-0.47,0-1.06,0-1.77
		c-0.18-0.35-0.27-0.35-0.27,0L362.95,69.05z M367.34,77.88c0.18,0,0.23-1.44,0.14-4.33c-0.09-2.88-0.23-4.38-0.41-4.5
		c-0.18-0.12-0.27,0.56-0.27,2.03c0,1.47,0.04,2.97,0.14,4.5C367.02,77.11,367.16,77.88,367.34,77.88z M368.99,94.12
		c0-1.41,0-2.88,0-4.42c-0.18-0.71-0.27-0.65-0.27,0.18l0.27,4.41V94.12z M373.38,117.26c0.18-0.35,0.18-0.71,0-1.06
		c-0.19-0.35-0.28-0.35-0.28,0L373.38,117.26z"/>
	<path d="M391.2,135.62c-1.28,0.23-2.1,0.12-2.47-0.35c-0.18-0.47,0.23-0.88,1.23-1.24c1-0.35,2.29-0.71,3.84-1.06
		c1.55-0.35,2.61-0.71,3.16-1.06c0.36-0.23,0.78-0.41,1.23-0.53c0.45-0.12,1.14-0.2,2.06-0.26c0.91-0.06,1.78-0.12,2.61-0.18
		c0.82-0.06,2.1-0.12,3.84-0.18c1.74-0.06,3.25-0.15,4.53-0.26l-0.55-2.3c-0.37-4.94-0.51-7.68-0.41-8.21
		c0.09-0.53,0.32-7.33,0.69-20.4c0.37-13.07,0.55-27.72,0.55-43.97l-3.29-1.59c-3.29-1.53-5.21-2.76-5.76-3.71
		c-0.55-0.94,0.09-2,1.92-3.18c0.55-0.47,2.92-1.71,7.13-3.71l1.37-11.66c-0.55,0-1.14,0.06-1.78,0.18
		c-0.64,0.12-1.1,0.18-1.37,0.18c-0.27,0-0.6,0-0.96,0c-0.37,0-0.64-0.03-0.82-0.09c-0.18-0.06-0.37-0.15-0.55-0.27
		c-0.37-0.94,0.55-1.59,2.74-1.94c2.19-0.23,3.29-0.76,3.29-1.59c0-0.12-0.69-0.18-2.06-0.18s-2.88-0.06-4.53-0.18
		c-1.65-0.12-2.65-0.29-3.02-0.53c-1.65-1.06-0.92-2,2.2-2.83c3.11-0.82,5.39-1.24,6.86-1.24c0.91,0,1.65-0.5,2.19-1.5
		c0.55-1,1.28-1.5,2.2-1.5c0.91,0,1.37,0.41,1.37,1.24c0,0.59,0.04,0.91,0.14,0.97c0.09,0.06,0.59,0.09,1.51,0.09
		c0.55,0,0.91-0.06,1.1-0.18c0.18-0.12,0.32-0.27,0.41-0.44c0.09-0.18,0.14-0.56,0.14-1.15c0.18-0.59,0.36-1.5,0.55-2.74
		c0.18-1.24,0.36-2.44,0.55-3.62c0.18-1.18,0.36-2.21,0.55-3.09c0.18-0.88,0.36-1.38,0.55-1.5c0.18-0.23,0.64-0.32,1.37-0.26
		c0.73,0.06,1.19,0.21,1.37,0.44c0.18,0.47,0,2.47-0.55,6c-0.55,3.42-0.82,5.33-0.82,5.74c0,0.41,0.45,0.62,1.37,0.62
		c0.91,0,1.55-0.53,1.92-1.59c0.37-1.18,0.64-1.88,0.82-2.12c0.18-0.23,0.64-0.29,1.37-0.18c0.73,0,1.1,0.59,1.1,1.77v1.77
		c1.83-0.12,4.8-0.23,8.92-0.35c4.12-0.12,7.96-0.2,11.52-0.27c3.57-0.06,7.5-0.06,11.8,0c4.29,0.06,8.55,0.27,12.76,0.62
		c4.21,0.35,8.05,0.83,11.52,1.41c6.95,1.3,14.27,3.74,21.95,7.33c7.68,3.59,13.44,7.21,17.28,10.86c3.66,3.42,6.49,6.24,8.5,8.48
		c2.01,2.24,3.57,4.18,4.66,5.83c1.1,1.65,1.83,2.94,2.2,3.88c0.36,0.94,0.87,2.36,1.51,4.24c0.64,1.88,1.32,3.65,2.06,5.3
		c0.91,2.24,1.37,5.42,1.37,9.54c0,4.12-0.46,7.33-1.37,9.62c-0.92,2.3-3.02,5.5-6.31,9.62c-4.57,5.77-8.83,9.86-12.76,12.27
		c-3.94,2.41-11.66,5.5-23.18,9.27c-4.76,1.53-9.83,3.33-15.23,5.39c-5.4,2.06-9.79,3.62-13.17,4.68c-3.39,1.06-6.72,1.83-10.01,2.3
		c-1.1,0.12-3.11,0.62-6.04,1.5c-2.93,0.88-5.95,1.83-9.05,2.83c-3.11,1-6.36,1.94-9.74,2.83c-3.39,0.88-6.08,1.44-8.09,1.68
		c-0.92,0.12-1.47,0.2-1.65,0.26c-0.18,0.06-0.37,0.18-0.55,0.35c-0.18,0.18-0.18,0.44,0,0.79c0.36,1.17-0.05,1.74-1.23,1.68
		c-1.19-0.06-1.97-0.68-2.33-1.85c-0.37-0.59-0.69-0.91-0.96-0.97c-0.27-0.06-1.05-0.03-2.33,0.09c-1.83,0.12-2.84,0.23-3.02,0.35
		c-0.92,5.89-1.47,8.92-1.65,9.09c-0.18,0.18-0.6,0.26-1.23,0.26c-0.64,0-1.05-0.09-1.23-0.26c-0.18-0.18-0.23-2-0.14-5.47
		c0.09-3.47,0.23-5.3,0.41-5.47c0.18-0.18,0.27-1.03,0.27-2.56c-0.55,0-1.19,0.03-1.92,0.09c-0.73,0.06-1.33,0.09-1.78,0.09
		c-0.46,0-0.87,0.03-1.23,0.09c-0.37,0.06-0.69,0.09-0.96,0.09s-0.51-0.03-0.69-0.09c-0.18-0.06-0.32-0.12-0.41-0.18
		c-0.09-0.06-0.23-0.15-0.41-0.26c-0.18-0.47,0.09-0.86,0.82-1.15c0.73-0.29,1.92-0.5,3.57-0.62c1.46-0.12,2.33-0.26,2.61-0.44
		c0.27-0.18,0.32-0.62,0.14-1.32c-0.18-0.59-1.01-0.88-2.47-0.88c-0.73,0-2.15,0.12-4.25,0.35c-2.1,0.24-4.16,0.47-6.17,0.71
		c-2.01,0.24-3.2,0.47-3.57,0.71C399.52,134.74,396.32,135.15,391.2,135.62z M406.57,49.09c-0.37,0.35-0.27,0.71,0.27,1.06
		c0.36,0.24,1.28,0.74,2.74,1.5c1.46,0.77,2.29,1.15,2.47,1.15c0-4.24-0.14-6.36-0.41-6.36s-1.14,0.35-2.61,1.06
		C407.57,48.21,406.75,48.74,406.57,49.09z M415.07,129.79c0.91,0,0.91-0.23,0-0.71c-0.55-0.23-0.82-0.18-0.82,0.18
		S414.52,129.79,415.07,129.79z M415.35,69.22c0.18-0.12,0.18-0.32,0-0.62c-0.19-0.29-0.37-0.26-0.55,0.09L415.35,69.22z
		 M415.62,122.02c0.18-0.12,0.37-3.35,0.55-9.71v-8.65c-1.1,7.42-1.37,13.31-0.82,17.66C415.53,121.91,415.62,122.14,415.62,122.02z
		 M416.44,52.27c-0.37-0.35-0.55-0.23-0.55,0.35l-0.27,4.77l0.27,4.06c0-0.23,0-0.76,0-1.59c0.36-2,0.64-3.59,0.82-4.77
		C417.08,53.68,416.99,52.74,416.44,52.27z M416.44,37.79c0,1.65-0.09,2.65-0.27,3c-0.18,0.47-0.09,0.68,0.27,0.62
		c0.36-0.06,1.28-0.32,2.74-0.79c1.46-0.59,2.29-1.29,2.47-2.12c0.37-0.94,0.46-1.5,0.28-1.68c-0.18-0.18-0.73-0.26-1.65-0.26
		c-1.1,0-2.1-0.23-3.02-0.71c-0.37-0.23-0.64-0.12-0.82,0.35c0,0.24,0,0.71,0,1.41V37.79z M421.11,30.55
		c-0.18-0.12-0.92-0.06-2.19,0.18c-1.28,0.12-2.02,0.47-2.2,1.06c0,0.24-0.09,1.35-0.27,3.36c1.46-1.06,2.74-1.59,3.84-1.59
		c0.91,0,1.41-0.06,1.51-0.18c0.09-0.12,0.04-0.53-0.14-1.24C421.47,31.2,421.29,30.67,421.11,30.55z M417.82,43.62
		c-0.55,0.35-0.92,0.77-1.1,1.24c-0.18,0.47-0.23,0.91-0.14,1.32c0.09,0.41,0.32,0.97,0.69,1.68c0.36,0.71,0.55,1.24,0.55,1.59
		l1.65-6.18C419.28,43.15,418.73,43.26,417.82,43.62z M419.46,25.43c0.91,0,1.46-0.12,1.65-0.35c0-0.12-0.55-0.12-1.65,0
		c-1.28,0.12-1.92,0.21-1.92,0.27C417.54,25.4,418.18,25.43,419.46,25.43z M419.19,89.18c0.18,0,1.1-4.12,2.74-12.36
		c4.21-22.13,5.49-33.02,3.84-32.67c-1.65,0.47-3.66,8.77-6.04,24.9c-0.55,2.71-0.87,6.74-0.96,12.1
		C418.68,86.5,418.82,89.18,419.19,89.18z M421.11,138.09c-0.18,0.71-0.09,1.09,0.27,1.15c0.36,0.06,1.55-0.09,3.57-0.44
		c0.91-0.12,1.37-0.53,1.37-1.24c0-0.59-0.18-0.97-0.55-1.15c-0.37-0.18-1.28-0.15-2.74,0.09c-0.73,0.12-1.23,0.26-1.51,0.44
		S421.11,137.5,421.11,138.09z M425.22,108.07c-0.18-6.24-0.64-13.77-1.37-22.6c-0.55,3.42-1.28,7.3-2.2,11.65
		c-0.37,4.12-0.46,6.18-0.27,6.18c0.73-0.23,1.37-0.29,1.92-0.18c0.55,0.12,0.87,0.41,0.96,0.88c0.09,0.47-0.05,0.77-0.41,0.88
		c-0.18,0.12-0.37,0.59-0.55,1.41c-0.18,0.82-0.32,2-0.41,3.53c-0.09,1.53-0.18,3-0.27,4.41c-0.09,1.41-0.18,3.12-0.27,5.12
		c-0.09,2-0.23,3.59-0.41,4.77c0.18,0,0.69,0.06,1.51,0.18c0.82,0.12,1.33,0.18,1.51,0.18c0.18,0,0.27-0.68,0.27-2.03
		c0-1.35,0-3.29,0-5.83C425.22,114.11,425.22,111.25,425.22,108.07z M421.38,133.5c0,0.94,0.82,1.06,2.47,0.35
		c1.83-0.82,1.65-1.24-0.55-1.24c-0.73,0-1.23,0.06-1.51,0.18C421.52,132.91,421.38,133.15,421.38,133.5z M421.93,126.08
		c0,0.24,0,0.59,0,1.06c0,0.83,0.09,1.3,0.27,1.41c0.18,0.12,0.82,0.12,1.92,0c0.91-0.12,1.33-0.41,1.23-0.88
		c-0.09-0.47-0.69-0.82-1.78-1.06L421.93,126.08z M425.77,25.61c0.73,0.47,1.28,0.35,1.65-0.35c0.18-0.23,0.09-0.35-0.27-0.35
		l-0.55-0.18C425.13,24.72,424.85,25.02,425.77,25.61z M431.81,43.62c-1.47,6.48-2.24,15.01-2.33,25.61
		c-0.09,10.6,0.14,21.31,0.69,32.14c0.55,10.83,0.82,17.6,0.82,20.31l-0.27,3.88c1.1,0,2.97,0.09,5.62,0.27
		c2.65,0.18,4.71,0.29,6.17,0.35c1.46,0.06,3.29,0.06,5.49,0c2.19-0.06,4.29-0.2,6.31-0.44c1.83-0.12,3.88-0.47,6.17-1.06
		c2.28-0.59,5.71-1.53,10.29-2.83c4.57-1.29,7.96-2.24,10.15-2.83c16.09-4.35,28.16-10.18,36.21-17.48
		c8.05-7.3,12.16-16.72,12.35-28.25c0-5.53-0.6-9.39-1.78-11.57c-1.19-2.18-3.98-4.62-8.37-7.33c-4.76-2.94-11.39-5.85-19.89-8.74
		c-8.5-2.88-16.42-4.97-23.73-6.27c-3.84-0.59-7.59-1.06-11.25-1.41c-3.66-0.35-6.86-0.56-9.6-0.62c-2.74-0.06-5.31-0.06-7.68,0
		c-2.38,0.06-4.44,0.21-6.17,0.44c-1.74,0.24-3.2,0.44-4.39,0.62c-1.19,0.18-2.43,0.44-3.7,0.79L431.81,43.62z M429.61,136.86
		c0,0.71,0.14,1.06,0.41,1.06s1.69-0.41,4.25-1.24c2.56-0.83,3.84-1.29,3.84-1.41c-0.37,0-0.73,0.03-1.1,0.09
		c-0.37,0.06-0.73,0.09-1.1,0.09c-0.37,0-0.82,0.03-1.37,0.09c-0.55,0.06-1.01,0.12-1.37,0.18c-0.37,0.06-0.78,0.09-1.23,0.09
		c-0.46,0-0.78,0-0.96,0C430.07,135.8,429.61,136.15,429.61,136.86z M435.1,24.37c-2.38,0.12-3.75,0.35-4.12,0.71
		c0,0.24,0.09,0.35,0.27,0.35c0.18,0,0.55-0.06,1.1-0.18c0.37,0,1.37-0.12,3.02-0.35l4.66-0.88
		C439.3,24.02,437.66,24.13,435.1,24.37z M432.9,36.2c0.18,0.12,0.37,0.18,0.55,0.18h0.82L432.9,36.2z M434,30.02
		c-0.37,1.88-0.64,2.83-0.82,2.83c0.18,0,0.45,0,0.82,0c0.55-0.12,2.65-0.35,6.31-0.71c7.5-0.82,16.73-1.18,27.71-1.06
		c0.37,0,0.28-0.06-0.27-0.18c-0.18-0.12-0.55-0.18-1.1-0.18c-7.13-1.65-17.93-2.47-32.37-2.47L434,30.02z M437.02,129.97
		c2.74-0.23,4.48-0.41,5.21-0.53l-7.13,0.35l-0.82,0.18C434.64,129.97,435.55,129.97,437.02,129.97z M496.55,28.08
		c-9.51-2.94-21.86-4.35-37.04-4.24l-16.46,0.53c0.18,0,0.55,0,1.1,0s0.96,0.06,1.23,0.18c0.28,0.12,0.46,0.21,0.55,0.27
		c0.09,0.06,0.69,0.12,1.78,0.18c1.1,0.06,2.65,0.09,4.66,0.09c5.12,0,10.97,0.41,17.56,1.24c6.58,0.83,12.85,1.92,18.79,3.27
		c5.94,1.35,10.74,2.74,14.4,4.15c2.37,0.94,5.17,1.85,8.37,2.74c3.2,0.88,5.08,1.44,5.62,1.68l1.37,0.35
		c0-0.23-1.01-0.94-3.02-2.12C509.99,33.2,503.68,30.43,496.55,28.08z M499.29,39.03c-7.32-2.47-13.17-4-17.56-4.59
		c-4.39-0.59-11.52-0.88-21.4-0.88c-10.97,0-16.01,0.18-15.09,0.53c0.36,0.12,2.29,0.24,5.76,0.35c14.27,0.59,25.6,1.83,34.02,3.71
		c9.14,2,18.93,4.83,29.35,8.48c1.65,0.71,2.65,1.06,3.02,1.06c0.36,0.12,0.18-0.06-0.55-0.53c-0.37-0.23-0.92-0.59-1.65-1.06
		C511.18,43.74,505.88,41.38,499.29,39.03z M455.13,130.32c3.47-0.59,5.58-1.06,6.31-1.41c0.91-0.23,1-0.35,0.28-0.35
		c-0.55,0-1.47,0.06-2.74,0.18c-1.47,0-3.2,0.21-5.21,0.62c-2.01,0.41-4.3,0.97-6.86,1.68l1.65,0.18
		C450.74,131.09,452.93,130.79,455.13,130.32z M467.75,125.55l6.58-1.06c4.21-0.82,7.54-1.79,10.01-2.91
		c2.47-1.12,3.7-1.71,3.7-1.77c0-0.06-1.69,0.35-5.08,1.24c-3.39,0.88-6.77,1.83-10.15,2.83
		C469.43,124.88,467.75,125.44,467.75,125.55z M489.14,32.14c-8.96-2-13.72-2.88-14.27-2.65c0,0.12,0.91,0.38,2.74,0.79
		c1.83,0.41,3.79,0.88,5.9,1.41c2.1,0.53,3.43,0.86,3.98,0.97l3.29,0.18C490.79,32.61,490.24,32.38,489.14,32.14z M501.21,36.91
		c0.91,0.35,1.69,0.68,2.33,0.97c0.64,0.3,1.28,0.56,1.92,0.79c0.64,0.24,1.24,0.44,1.78,0.62c0.55,0.18,0.91,0.26,1.1,0.26
		l-1.37-0.88c-0.55-0.47-1.56-0.91-3.02-1.32C502.49,36.94,501.58,36.79,501.21,36.91z M517.68,111.07
		c1.83-0.82,3.75-1.85,5.76-3.09c2.01-1.24,3.84-2.47,5.49-3.71c1.65-1.24,3.15-2.44,4.53-3.62c1.37-1.18,2.24-2.18,2.61-3
		c1.65-3.06,2.47-5.59,2.47-7.59c0-0.59-0.37-0.41-1.1,0.53c-4.76,7.42-11.8,14.07-21.12,19.95c-2.38,1.41-3.75,2.36-4.11,2.83
		c-0.37,0.24-0.19,0.24,0.55,0C513.47,113.14,515.11,112.37,517.68,111.07z M530.29,50.5c-1.47-3.18-3.93-5.59-7.41-7.24
		c-4.03-1.88-6.68-2.88-7.96-3c0.18,0.24,1.65,1.56,4.39,3.97c2.74,2.41,5.49,4.74,8.23,6.98c2.74,2.24,4.21,3.24,4.39,3
		C531.94,53.98,531.39,52.74,530.29,50.5z M534,64.81c0.09,0,0.14-0.12,0.14-0.35c0-0.23-0.09-0.53-0.27-0.88
		c-0.55-1.77-1.56-3.41-3.02-4.94h-0.27c0,0.35,0.45,1.18,1.37,2.47c0.91,1.41,1.46,2.53,1.65,3.36
		C533.77,64.69,533.9,64.81,534,64.81z M536.06,55.98c0.36,1.3,1.28,2.65,2.74,4.06c0.36,0.35,0.55,0.47,0.55,0.35
		c0.18-0.35-0.27-1.35-1.37-3l-2.19-2.83C535.78,54.68,535.87,55.16,536.06,55.98z M536.88,84.41c1.46-2.83,2.2-4.77,2.2-5.83
		c0-2-0.18-2.94-0.55-2.83c-0.37,0.12-0.64,0.94-0.82,2.47C537.7,79.41,537.43,81.47,536.88,84.41z M541.82,69.93
		c0-1.06-0.55-2.3-1.65-3.71c-0.55-0.59-0.92-1-1.1-1.24c-0.18-0.23-0.27-0.18-0.27,0.18c0.18,0.24,0.36,0.65,0.55,1.24
		c0.36,0.82,0.73,1.59,1.1,2.3l1.1,2.12L541.82,69.93z M543.74,86c0.36-0.94,0.64-2.21,0.82-3.8c0.18-1.59,0.32-2.97,0.41-4.15
		c0.09-1.18,0.04-1.82-0.14-1.94c-0.37,0-0.78,1.06-1.24,3.18c-0.46,2.12-0.78,4.24-0.96,6.36c-0.18,2.12-0.18,3.12,0,3
		C542.82,88.65,543.19,87.76,543.74,86z"/>
</g>
<g>
	<path class="st0" d="M96.85,234.45c-1.49-0.78-3.38-1.92-5.67-3.44c-2.29-1.52-3.78-2.66-4.48-3.44
		c-3.18-2.89-4.72-6.67-4.62-11.33c0-1.69,0.22-3.18,0.67-4.45c0.45-1.27,0.92-2.24,1.42-2.91c0.5-0.67,1.32-1.64,2.46-2.91
		c1.14-1.27,2.06-2.37,2.76-3.28c6.16-8.47,16.51-11.83,31.03-10.06c1.89,0.21,3.45,0.48,4.7,0.79c1.24,0.32,2.19,0.6,2.83,0.85
		c0.65,0.25,1.44,0.55,2.39,0.9c0.94,0.35,1.86,0.67,2.76,0.95c2.58,0.85,4.5,1.71,5.74,2.59c1.24,0.88,2.24,1.96,2.98,3.23
		c0.75,1.27,1.37,2.16,1.86,2.65c0.69,0.64,1.24,1.47,1.64,2.49c0.4,1.02,0.65,1.85,0.75,2.49c0.1,0.64,0.17,1.5,0.22,2.59
		c0.05,1.1,0.07,1.71,0.07,1.85c0.79,0.07,1.39,0.12,1.79,0.16c0.4,0.04,0.79,0.11,1.19,0.21c0.4,0.11,0.75,0.23,1.04,0.37
		c0.3,0.14,0.45,0.32,0.45,0.53c0,0.42-0.75,0.76-2.24,1.01c-1.49,0.25-3.23,0.3-5.22,0.16c-3.98-0.42-11.61-0.51-22.9-0.26
		c-11.29,0.25-18.97,0.83-23.05,1.75c-1.49,0.35,7.81,0.25,27.89-0.32c4.08-0.14,7.31-0.25,9.7-0.32c2.48-0.14,4.4-0.23,5.74-0.26
		c1.34-0.04,2.31-0.04,2.91,0c0.6,0.04,0.92,0.07,0.97,0.11c0.05,0.04,0.12,0.16,0.22,0.37c0,0.28-0.2,0.5-0.6,0.64
		c-0.4,0.07-4.62,0.41-12.68,1.01c-8.05,0.6-12.53,0.9-13.42,0.9c-0.6,0-0.95-0.14-1.04-0.42c-0.1-0.21-0.4-0.33-0.9-0.37
		c-0.5-0.04-2.34-0.02-5.52,0.05c-1,0.07-1.84,0.11-2.54,0.11c-0.7,0-1.69,0.02-2.98,0.05c-1.29,0.04-2.59,0.05-3.88,0.05
		l-6.26,0.21c0,0.78,0.99,2.86,2.98,6.25c1.09,1.77,1.99,2.97,2.69,3.6c0.69,0.64,1.89,1.24,3.58,1.8c1.39,0.5,2.81,0.85,4.25,1.06
		c1.44,0.21,2.76,0.35,3.95,0.42s2.58,0.02,4.18-0.16c1.59-0.18,2.88-0.35,3.88-0.53c0.99-0.18,2.31-0.49,3.95-0.95
		c1.64-0.46,2.81-0.81,3.51-1.06c0.69-0.25,1.89-0.65,3.58-1.22c1.69-0.56,2.78-0.95,3.28-1.17c5.07-1.69,7.81-2.4,8.2-2.12
		c0.1,0.14,0.2,0.32,0.3,0.53c0,0.21-0.2,0.57-0.6,1.06c-0.4,0.5-0.9,1.02-1.49,1.59c-0.6,0.57-1.14,1.02-1.64,1.38
		c-1.29,0.85-1.59,1.38-0.9,1.59c0.1,0.07,0.25,0.07,0.45,0c0.6-0.07,2.29-0.85,5.07-2.33c1.29-0.56,2.04-0.6,2.24-0.11
		c0.1,0.21-0.42,0.69-1.57,1.43c-1.14,0.74-2.36,1.36-3.65,1.85l-1.34,0.53c0.2,0.07,0.45,0.11,0.75,0.11s0.52,0,0.67,0
		c0.15,0,0.27,0.04,0.37,0.11c0.1,0.07,0.17,0.14,0.22,0.21c0.05,0.07,0.07,0.21,0.07,0.42c0.1,0.21,0.1,0.37,0,0.48
		c-0.1,0.11-0.28,0.23-0.52,0.37c-0.25,0.14-0.72,0.32-1.42,0.53c-2.89,1.06-6.81,2.03-11.78,2.91c-4.97,0.88-8.9,1.18-11.78,0.9
		c-4.38-0.35-7.56-0.74-9.55-1.17C103.31,237.27,99.93,236.07,96.85,234.45z M86.55,208.71l-0.9,1.27
		c-1.29,1.91-1.86,4.29-1.72,7.15c0.15,2.86,0.97,5.39,2.46,7.57c0.5,0.63,1.29,1.41,2.39,2.33c1.09,0.92,2.06,1.68,2.91,2.28
		c0.84,0.6,1.29,0.9,1.34,0.9c0.05,0-0.27-0.37-0.97-1.11c-0.7-0.74-1.54-1.71-2.54-2.91c-1-1.2-1.92-2.58-2.76-4.13
		c-0.85-1.55-1.39-3.16-1.64-4.82c-0.25-1.66,0.02-3.27,0.82-4.82c0.3-0.49,0.47-0.97,0.52-1.43c0.05-0.46,0.07-0.93,0.07-1.43
		C86.55,209.06,86.55,208.78,86.55,208.71z M91.48,223.86c-0.6-0.78-1.42-2.26-2.46-4.45c-1.04-2.19-1.57-3.46-1.57-3.81
		c0-0.21-0.05-0.32-0.15-0.32c-0.3-0.07-0.4,0.42-0.3,1.48c0.3,2.12,1.27,4.43,2.91,6.94c1.64,2.51,3.51,4.57,5.59,6.2
		c2.39,1.84,3.93,2.75,4.62,2.75c0.1,0-0.1-0.35-0.6-1.06c-0.4-0.49-1.59-1.55-3.58-3.18C93.96,226.79,92.47,225.27,91.48,223.86z
		 M95.5,205.74c-2.89,1.62-4.92,3.25-6.12,4.87c-0.5,0.71-0.7,1.55-0.6,2.54c0.2,0.92,0.35,1.38,0.45,1.38c0.1,0,0.5-0.04,1.19-0.11
		c0.3-0.07,0.52-0.14,0.67-0.21c0.15-0.07,0.27-0.17,0.37-0.32c0.1-0.14,0.2-0.42,0.3-0.85c0.9-2.12,2.78-4.77,5.67-7.94
		c0.4-0.35,0.5-0.49,0.3-0.42C97.54,204.75,96.79,205.11,95.5,205.74z M99.38,199.28c-5.67,2.68-9,5.12-9.99,7.31l-0.6,1.48
		c-0.1,0.14,0.17,0.02,0.82-0.37c0.65-0.39,1.52-0.95,2.61-1.7c1.09-0.74,1.99-1.32,2.69-1.75c0.6-0.28,1.84-0.85,3.73-1.7
		c1.89-0.85,3.38-1.62,4.48-2.33c2.19-1.48,4.5-2.65,6.94-3.5c2.44-0.85,4.4-1.36,5.89-1.54c1.49-0.18,3.11-0.3,4.85-0.37
		c1.74-0.07,2.76-0.11,3.06-0.11c-0.2,0-0.55-0.05-1.04-0.16c-0.5-0.11-1.1-0.19-1.79-0.26c-0.7-0.07-1.54-0.11-2.54-0.11
		c-1,0-2.24,0.11-3.73,0.32c-1.49,0.21-3.13,0.53-4.92,0.95C106.54,196.25,103.06,197.52,99.38,199.28z M90.43,216.02
		c-0.4,0-0.55,0.28-0.45,0.85c0.69,2.33,2.24,5.05,4.62,8.16c0.4,0.42,0.65,0.6,0.75,0.53c0.1,0-0.15-0.56-0.75-1.69
		c-0.2-0.56-0.42-1.11-0.67-1.64c-0.25-0.53-0.45-0.95-0.6-1.27c-0.15-0.32-0.27-0.6-0.37-0.85c-0.1-0.25-0.2-0.42-0.3-0.53
		c-0.1-0.11-0.2-0.16-0.3-0.16c-0.6,0-1-0.17-1.19-0.53c-0.2-0.35-0.1-0.67,0.3-0.95c0.3-0.14,0.3-0.39,0-0.74
		c-0.1-0.14-0.2-0.3-0.3-0.48c-0.1-0.17-0.15-0.3-0.15-0.37c0-0.07-0.05-0.14-0.15-0.21C90.78,216.05,90.63,216.02,90.43,216.02z
		 M109.67,193.67c-3.78,0.35-7.16,1.24-10.14,2.65c-0.6,0.28-1.14,0.57-1.64,0.85c-0.5,0.28-0.95,0.55-1.34,0.79
		c-0.4,0.25-0.75,0.51-1.04,0.79c-0.3,0.28-0.57,0.51-0.82,0.69c-0.25,0.18-0.45,0.34-0.6,0.48c-0.15,0.14-0.32,0.32-0.52,0.53
		c0.1-0.07,0.3-0.19,0.6-0.37c0.3-0.18,0.79-0.44,1.49-0.79c0.69-0.35,1.59-0.78,2.68-1.27c2.39-1.2,6.36-2.61,11.93-4.24
		c0.3-0.07,0.4-0.12,0.3-0.16C110.47,193.58,110.17,193.6,109.67,193.67z M94.76,216.86c0.2,0,0.94-0.11,2.24-0.32
		c0.79-0.14,4.52-0.6,11.19-1.38c-1.1,0.07-2.59,0.14-4.48,0.21c-4.48,0.07-7.09,0.14-7.83,0.21c-0.75,0.07-1.12,0.28-1.12,0.64
		v0.11C94.66,216.69,94.66,216.86,94.76,216.86z M95.35,213.05c-0.5,0.5-0.45,0.74,0.15,0.74c0.2-0.07,7.41-0.28,21.63-0.64
		c-2.49-0.07-5.67-0.14-9.55-0.21C99.63,212.8,95.55,212.84,95.35,213.05z M98.93,206.38c-0.4,0.42-0.82,0.99-1.27,1.69
		c-0.45,0.71-0.87,1.34-1.27,1.91c-0.4,0.57-0.6,0.92-0.6,1.06c0,0.21,1.17,0.34,3.51,0.37c2.34,0.04,9.37,0.09,21.11,0.16
		c7.66,0,14.02,0,19.09,0l-1.04-1.27c-0.5-0.78-1.82-2.17-3.95-4.18c-2.14-2.01-3.61-3.27-4.4-3.76c-1.1-0.64-2.26-1.2-3.51-1.69
		c-1.24-0.49-2.41-0.86-3.51-1.11c-1.1-0.25-2.06-0.42-2.91-0.53c-0.85-0.11-1.64-0.19-2.39-0.26c-0.75-0.07-1.17-0.11-1.27-0.11
		c-6.66,1.69-10.81,2.91-12.46,3.65C102.44,203.04,100.72,204.4,98.93,206.38z M102.36,235.19l1.19,0.32l-0.15-0.11
		c-0.6-0.35-1.19-0.56-1.79-0.64c-0.2,0-0.1,0.11,0.3,0.32C102.02,235.08,102.16,235.12,102.36,235.19z M113.4,234.45
		c0.3-0.07,0.3-0.11,0-0.11c-0.1,0-0.25,0-0.45,0c-3.48-0.21-6.27-0.64-8.35-1.27c-0.7-0.21-1.14-0.32-1.34-0.32
		c-0.3,0-0.1,0.25,0.6,0.74c0.6,0.42,1.84,0.81,3.73,1.17c2.09,0.28,3.33,0.42,3.73,0.42c0.4,0,0.72-0.09,0.97-0.26
		C112.53,234.64,112.9,234.52,113.4,234.45z M117.88,237.2l1.79-0.11c-3.28,0-6.41-0.21-9.4-0.64h-0.6c0.1,0.14,0.69,0.32,1.79,0.53
		C113.05,237.41,115.19,237.48,117.88,237.2z M116.39,197.06c0.5-0.14,0.6-0.25,0.3-0.32c-0.3,0-0.9,0.11-1.79,0.32
		c-0.5,0.14-0.7,0.21-0.6,0.21l0.3,0.11C115.19,197.37,115.79,197.27,116.39,197.06z M131,233.6c-1.1,0.14-2.09,0.28-2.98,0.42
		c-0.9,0.14-1.86,0.3-2.91,0.48c-1.04,0.18-2.16,0.34-3.36,0.48c-1.19,0.14-2.29,0.28-3.28,0.42l2.98,0.11c1.09,0,1.91,0,2.46,0
		c0.55,0,0.92-0.03,1.12-0.11c0.2-0.07,0.55-0.18,1.04-0.32c0.5-0.14,1.04-0.28,1.64-0.42C128.62,234.45,129.71,234.1,131,233.6z
		 M138.61,206.38c-1.39-2.47-2.86-4.34-4.4-5.61c-1.54-1.27-3.71-2.37-6.49-3.28c-1.69-0.42-2.66-0.64-2.91-0.64
		c-0.25,0-1.62,0.21-4.1,0.64c0.3,0.07,1.12,0.25,2.46,0.53c1.34,0.28,2.54,0.6,3.58,0.95c1.04,0.35,2.44,1.08,4.18,2.17
		c1.74,1.1,3.51,2.49,5.3,4.18c1.09,0.99,1.99,1.87,2.69,2.65c0.3,0.28,0.45,0.39,0.45,0.32
		C139.46,208.07,139.21,207.44,138.61,206.38z M139.81,227.99c0-0.14-1.07,0.14-3.21,0.85c-2.14,0.71-4.58,1.5-7.31,2.38
		c-2.74,0.88-4.55,1.47-5.44,1.75l-1.79,0.53l6.12-0.85c0.2,0,0.45-0.04,0.75-0.11c2.98-0.42,4.82-0.74,5.52-0.95
		c0.69-0.21,1.59-0.74,2.69-1.59c0.1-0.07,0.2-0.14,0.3-0.21C139.01,228.66,139.81,228.06,139.81,227.99z M127.72,214.11
		c6.56,0,10.42-0.02,11.56-0.05c1.14-0.04,1.72-0.16,1.72-0.37l-2.69-0.21l-6.56,0.32L127.72,214.11z M144.13,211.25
		c0.1-0.28,0-0.99-0.3-2.12c-0.3-1.13-0.6-1.98-0.9-2.54c-0.7-0.99-1.39-1.55-2.09-1.7l-0.15,0.21c0.1,0.28,0.45,1.24,1.04,2.86
		c0.5,1.84,0.82,2.9,0.97,3.18c0.15,0.28,0.37,0.42,0.67,0.42C143.78,211.57,144.03,211.46,144.13,211.25z M143.83,214.11
		c0.5,0,0.69-0.14,0.6-0.42c0-0.35-0.22-0.55-0.67-0.58c-0.45-0.04-0.72,0.05-0.82,0.26C142.64,213.86,142.94,214.11,143.83,214.11z
		"/>
	<path d="M160.24,234.77c-0.2,0-0.35-0.02-0.45-0.05c-0.1-0.04-0.2-0.12-0.3-0.26c-0.1-0.14-0.15-0.3-0.15-0.48
		c0-0.17-0.05-0.48-0.15-0.9c-2.09-15.18-2.29-28.99-0.6-41.42c0.2-2.05,0.35-5.95,0.45-11.71c0.1-5.75-0.1-9.59-0.6-11.49
		c-0.8-1.7-0.55-2.54,0.75-2.54c0.69,0,1.42,0.16,2.16,0.48c0.75,0.32,1.22,0.65,1.42,1.01c0.2,0.21,0.35,0.37,0.45,0.48
		c0.1,0.11,0.17,0.14,0.22,0.11c0.05-0.04-0.52-2.38-1.72-7.04c-0.1-0.49,0.05-0.81,0.45-0.95c0.6-0.21,1.07,0.09,1.42,0.9
		c0.35,0.81,0.62,1.73,0.82,2.75c0.2,1.02,0.45,1.64,0.75,1.85c0.2,0.07,0.94,1.91,2.24,5.51c0.6,0.99,0.99,1.48,1.19,1.48
		c0.2-0.35,0.5-0.6,0.9-0.74c0.4-0.14,0.69-0.11,0.9,0.11c0.2,0.14,0.45,0.18,0.75,0.11c0.5-0.14,1.04,0.18,1.64,0.95
		c0.6,0.78,1.84,2.61,3.73,5.51c2.88,4.73,6.39,10.08,10.52,16.05c4.13,5.97,7.58,10.8,10.37,14.51c2.78,3.71,4.23,5.56,4.33,5.56
		c0.1,0,0.75-0.92,1.94-2.75c1.19-1.84,2.73-4.2,4.62-7.1c1.89-2.89,3.48-5.26,4.77-7.1c3.68-5.08,7.61-9.75,11.78-13.98
		c4.18-4.24,7.26-7.4,9.25-9.48c1.99-2.08,3.08-3.79,3.28-5.14c0.1-0.99,0.25-1.66,0.45-2.01c0.2-0.35,0.55-0.46,1.04-0.32
		c0.4,0.07,0.52,0.62,0.37,1.64c-0.15,1.02-0.07,1.61,0.22,1.75c0.69,0.21,0.69,0.67,0,1.38c-0.3,0.28-0.4,0.53-0.3,0.74
		c0,0.07,0.05,0.05,0.15-0.05c0.1-0.11,0.22-0.28,0.37-0.53c0.15-0.25,0.35-0.55,0.6-0.9c0.25-0.35,0.55-0.79,0.9-1.32
		c0.35-0.53,0.72-1.08,1.12-1.64c0.79-1.06,1.32-1.71,1.57-1.96c0.25-0.25,0.57-0.37,0.97-0.37c0.5,0,0.82,0.12,0.97,0.37
		c0.15,0.25,0.02,0.48-0.37,0.69c-0.3,0.21-1,1.13-2.09,2.75c-1.1,1.62-1.59,2.54-1.49,2.75c0.2,0.14,0.3,0.39,0.3,0.74
		c0.1,0.42,0.45,0.42,1.04,0c0.5-0.42,2.09-1.91,4.77-4.45l0.15-0.11l0.15-0.11l0.15-0.11l0.15-0.11l0.15-0.11v-0.11l0.15-0.21
		c1.49-1.34,2.44-1.94,2.83-1.8c0.79,0.21,0.55,0.99-0.75,2.33c-1.99,2.05-4.03,3.92-6.12,5.61l-0.6,0.53c0.1,0,0.3-0.07,0.6-0.21
		c0.69-0.28,1.24-0.28,1.64,0c0.4,0.28,0.69,0.85,0.9,1.69c0.3,0.85,0.45,11.41,0.45,31.67c0,20.27-0.2,30.58-0.6,30.93
		c-0.3,0.14-0.6,0.07-0.9-0.21s-0.45-10.38-0.45-30.29c0-21.61-0.25-32.09-0.75-31.46c-0.6,0.92-0.95,9.68-1.04,26.27l0.15,9.32
		c0.1,2.12,0.12,3.35,0.07,3.71c-0.05,0.35-0.22,0.57-0.52,0.64c-0.4,0.07-0.65,0.28-0.75,0.64c-0.1,0.35-0.17,3.23-0.22,8.63
		c-0.05,5.4-0.03,9.48,0.07,12.23c0.1,1.98,0.12,3.12,0.07,3.44c-0.05,0.32-0.22,0.51-0.52,0.58c-0.5,0-0.8-0.04-0.9-0.11
		c-0.5-1.41-0.75-4.17-0.75-8.26c0-1.62-0.15-2.47-0.45-2.54c-0.3-0.07-0.45-0.37-0.45-0.9c0-0.53,0-1.02,0-1.48
		c0-0.46-0.15-0.65-0.45-0.58c-0.4,0.14-0.65-0.03-0.75-0.53c-0.2-0.71-0.2-3.32,0-7.84l0.15-13.98l-0.15,4.24
		c-0.2,6.14-0.5,11.25-0.9,15.31c-0.4,4.06-0.77,6.92-1.12,8.58c-0.35,1.66-0.52,2.74-0.52,3.23c0,1.13-0.25,1.69-0.75,1.69
		c-0.8,0-1.54-2.65-2.24-7.94c-0.5-4.24-0.82-8.51-0.97-12.82c-0.15-4.31-0.15-8.05,0-11.23c0.15-3.18,0.32-6.04,0.52-8.58
		c0.2-2.54,0.4-4.5,0.6-5.88c0.2-1.38,0.27-2.07,0.22-2.07c-0.05,0-0.6,0.63-1.64,1.91c-1.04,1.27-2.21,2.72-3.51,4.34
		c-1.29,1.62-2.19,2.79-2.68,3.5c-1.49,2.19-3.03,4.41-4.62,6.67c-1.99,2.97-4.13,5.95-6.41,8.95c-2.29,3-3.88,5.12-4.77,6.36
		c-0.9,1.24-1.29,2.03-1.19,2.38c0.1,0.35,0,0.65-0.3,0.9c-0.3,0.25-0.65,0.37-1.04,0.37c-0.3,0-0.6,0.14-0.9,0.42
		c-0.2,0.21-0.5,0.34-0.9,0.37c-0.4,0.04-0.7-0.05-0.9-0.26c-0.2-0.21-0.15-0.56,0.15-1.06c0.5-0.64,0.5-1.09,0-1.38
		c-0.2-0.14-0.35-0.18-0.45-0.11c-0.1,0.07-0.2,0.28-0.3,0.63c-0.3,0.64-0.27,1.18,0.07,1.64c0.35,0.46,0.52,0.94,0.52,1.43
		c0,0.42,0.2,0.81,0.6,1.17c0.79,0.78,0.84,1.27,0.15,1.48c-0.7,0.21-1.54-0.25-2.54-1.38c-0.6-0.71-1.1-0.99-1.49-0.85
		c-0.6,0.28-1.54,1.24-2.83,2.86c-0.9,1.2-1.52,1.94-1.86,2.22c-0.35,0.28-0.72,0.35-1.12,0.21c-0.3-0.07-0.47-0.21-0.52-0.42
		c-0.05-0.21,0.07-0.56,0.37-1.06s0.65-0.97,1.04-1.43c0.4-0.46,0.94-1.18,1.64-2.17c0.69-0.99,1.34-1.91,1.94-2.75
		c-0.1-0.07-0.27-0.28-0.52-0.64c-0.25-0.35-0.47-0.67-0.67-0.95c-0.2-0.28-0.45-0.58-0.75-0.9c-0.3-0.32-0.55-0.56-0.75-0.74
		c-0.2-0.17-0.35-0.26-0.45-0.26c-0.3,0-0.57-0.05-0.82-0.16c-0.25-0.11-0.42-0.26-0.52-0.48c-0.1-0.21-0.15-0.42-0.15-0.63
		c0.1-0.49-0.4-1.41-1.49-2.75c-0.4-0.42-0.95-1.06-1.64-1.91l-1.94-2.22c-0.1,0.85,2.58,4.91,8.06,12.18
		c0,0.28-0.17,0.44-0.52,0.48c-0.35,0.04-0.72-0.05-1.12-0.26c-1.1-0.78-2.71-2.75-4.85-5.93c-2.14-3.18-3.31-5.33-3.51-6.46
		c-0.1-0.64,0.05-1.06,0.45-1.27c0.3-0.14,0.35-0.39,0.15-0.74c-0.2-0.35-0.95-1.45-2.24-3.28c-0.6-0.85-1.57-2.35-2.91-4.5
		c-1.34-2.15-2.54-3.97-3.58-5.46c-1.04-1.48-1.92-2.47-2.61-2.97l0.75,1.59c0.3,0.5,0.84,1.45,1.64,2.86v0.11l0.15,0.11v0.11
		l0.15,0.11c1.49,2.61,3.18,5.69,5.07,9.22c1.99,3.74,4.23,7.7,6.71,11.86c1.29,3.04,1.74,4.63,1.34,4.77
		c-0.4,0-0.72-0.09-0.97-0.26c-0.25-0.18-0.67-0.62-1.27-1.32c-1.19-1.55-2.44-3.3-3.73-5.24c-1.29-1.94-2.51-3.88-3.65-5.83
		c-1.14-1.94-2.26-3.94-3.36-5.99c-1.1-2.05-2.11-4.03-3.06-5.93c-0.95-1.91-1.82-3.74-2.61-5.51c-0.8-1.76-1.54-3.35-2.24-4.77
		c-0.7-1.41-1.29-2.65-1.79-3.71c-0.5-1.06-0.92-1.85-1.27-2.38c-0.35-0.53-0.57-0.72-0.67-0.58c-1,1.91-1.29,6.55-0.9,13.93
		c0.4,7.38,0.87,15.25,1.42,23.62c0.55,8.37,0.57,12.62,0.07,12.76c-0.6,0.14-1-0.14-1.19-0.85c-0.2-0.71-0.35-2.72-0.45-6.04
		c-0.3-4.24-0.5-6.39-0.6-6.46c0-0.07-0.05,0.23-0.15,0.9c-0.1,0.67-0.22,1.54-0.37,2.6c-0.15,1.06-0.3,2.14-0.45,3.23
		c-0.15,1.1-0.3,2.08-0.45,2.97c-0.15,0.88-0.32,1.47-0.52,1.75c-0.3,0.42-0.7,0.62-1.19,0.58c-0.5-0.03-0.85-0.26-1.04-0.69
		c-0.3-0.92-0.52-6.02-0.67-15.31c-0.15-9.29-0.13-15.98,0.07-20.07c0.6-9.53,0.69-15.43,0.3-17.69c-0.1,0.35-0.45,1.84-1.04,4.45
		c-0.6,2.47-0.85,6-0.75,10.59c0.1,8.62,0.25,17.87,0.45,27.75c0.2,7.91,0.05,12.04-0.45,12.39
		C160.79,234.73,160.54,234.77,160.24,234.77z M161.14,173.12c0,0.07,0,0.28,0,0.64c0,0.35-0.03,0.79-0.07,1.32
		c-0.05,0.53-0.13,1.08-0.22,1.64c-0.1,0.85-0.05,1.27,0.15,1.27l0.75-2.01c0.1-0.49,0.15-0.88,0.15-1.17
		c0-0.28-0.03-0.48-0.07-0.58c-0.05-0.11-0.15-0.26-0.3-0.48C161.36,173.54,161.23,173.33,161.14,173.12z M161.43,168.46v0.74
		c-0.1,0.35-0.03,0.81,0.22,1.38c0.25,0.57,0.55,1.04,0.9,1.43c0.35,0.39,0.57,0.51,0.67,0.37c0.3-0.14,0.69-0.14,1.19,0h0.3
		c0.1-0.07,0-0.28-0.3-0.64c-0.2-0.21-0.45-0.49-0.75-0.85c-0.3-0.35-0.6-0.69-0.9-1.01c-0.3-0.32-0.57-0.62-0.82-0.9
		C161.71,168.71,161.53,168.53,161.43,168.46z M165.16,179.79c0.1-0.07,0.1-0.19,0-0.37c-0.1-0.18-0.15-0.16-0.15,0.05
		L165.16,179.79z M165.76,175.55c0.3,0,0.45-0.05,0.45-0.16c0-0.11-0.1-0.44-0.3-1.01l-0.6-1.27c-0.1,0-0.15,0.39-0.15,1.17
		C165.16,175.13,165.36,175.55,165.76,175.55z M166.06,204.47c0-0.71,0-1.66,0-2.86l-0.3-4.13c0,0.14-0.05,0.53-0.15,1.17
		c-0.1,0.71-0.15,1.31-0.15,1.8c-0.2,1.62-0.3,4.63-0.3,9c0,4.38,0.1,6.75,0.3,7.1l0.3-1.59
		C165.96,212.7,166.06,209.2,166.06,204.47z M165.46,189.22c-0.1-0.14-0.15-0.14-0.15,0l0.15,0.64
		C165.56,189.71,165.56,189.5,165.46,189.22z M171.43,176.4l-0.75-1.8c-0.1,0.07-0.15,0.21-0.15,0.42c-0.1,0.35-0.03,0.83,0.22,1.43
		c0.25,0.6,0.5,1.13,0.75,1.59c0.25,0.46,0.42,0.69,0.52,0.69C172.02,178.66,171.82,177.88,171.43,176.4z M175.6,188.69
		c-0.9-1.41-1.42-2.19-1.57-2.33c-0.15-0.14-0.32-0.14-0.52,0c-0.2,0.14,0.35,0.99,1.64,2.54c1.19,1.55,1.84,2.33,1.94,2.33
		C177.19,191.23,176.7,190.38,175.6,188.69z M200.37,216.12c-6.86-9.32-12.43-17.07-16.71-23.25c-4.28-6.18-7.26-10.71-8.95-13.61
		c-0.3-0.63-0.45-0.81-0.45-0.53c0.4,1.91,1.74,5.19,4.03,9.85c0.69,1.48,1.94,3.43,3.73,5.83c1.79,2.4,3.68,4.82,5.67,7.26
		c1.99,2.44,3.93,4.77,5.82,6.99c1.89,2.22,3.48,4.03,4.77,5.4C199.57,215.43,200.27,216.12,200.37,216.12z M199.32,217.82
		c0-0.14-0.85-0.81-2.54-2.01c0.1,0.07,0.25,0.28,0.45,0.64c0.9,1.13,1.49,1.73,1.79,1.8C199.12,218.17,199.22,218.03,199.32,217.82
		z M202.45,221.53c0.1-0.35-0.2-0.85-0.9-1.48c-0.6-0.64-1.04-0.85-1.34-0.64c-0.2,0.28,0.02,0.83,0.67,1.64
		c0.65,0.81,1.02,1.18,1.12,1.11C202.1,222.09,202.25,221.88,202.45,221.53z M228.86,181.91c-0.7,0.28-3.48,3.32-8.35,9.11
		c-3.28,3.81-9.15,12.18-17.6,25.1l1.64,2.12c0.1,0,1.39-1.76,3.88-5.3c2.39-3.53,4.12-6.57,5.22-9.11
		c2.29-5.79,4.08-8.69,5.37-8.69c0.4,0,0.65,0.11,0.75,0.32c0.2,0.21,1.07-0.83,2.61-3.12c1.54-2.29,3.03-4.62,4.48-6.99
		C228.28,182.99,228.95,181.84,228.86,181.91z M216.18,209.45c4.08-5.65,6.06-8.58,5.97-8.79c0-0.07,0.02-0.18,0.07-0.32
		c0.05-0.14,0.12-0.3,0.22-0.48c0.1-0.17,0.2-0.35,0.3-0.53c0.1-0.18,0.2-0.37,0.3-0.58c-0.3,0-2.26,2.38-5.89,7.15
		c-3.63,4.77-5.84,7.86-6.64,9.27c-0.7,1.13-1.84,2.61-3.43,4.45c-0.5,0.71-0.75,1.08-0.75,1.11c0,0.04,0.25,0.34,0.75,0.9
		C210.56,217.18,213.59,213.12,216.18,209.45z M218.86,197.48c0.5-0.71,0.65-1.06,0.45-1.06c-0.3,0-0.75,0.64-1.34,1.91l-0.15,0.42
		C217.92,198.68,218.27,198.26,218.86,197.48z M231.99,181.17c0.99-1.2,1.72-2.15,2.16-2.86c0.45-0.71,0.67-1.2,0.67-1.48
		l-2.83,4.13V181.17z M235.12,229.79c0.2-0.14,0.45-1.91,0.75-5.3c0.4-4.8,0.69-10.38,0.9-16.74c0.2-6.36,0.25-11.58,0.15-15.68
		c-0.1-4.09-0.2-6.07-0.3-5.93c-0.4,0.21-0.85,2.22-1.34,6.04c-0.5,3.81-0.85,7.8-1.04,11.97c-0.2,2.97-0.25,6.37-0.15,10.22
		c0.1,3.85,0.25,7.42,0.45,10.7C234.72,228.36,234.92,229.93,235.12,229.79z M234.23,184.77l-0.15,0.32l0.75-0.85v-0.11
		L234.23,184.77z M239.15,180v0.85v-0.11v-1.59V180z M239.9,175.77c0.3-0.21,0.5-0.81,0.6-1.8c-0.6,1.13-1,1.91-1.19,2.33
		L239.9,175.77z M243.62,175.02l0.45-0.85c0,0.07-0.17,0.25-0.52,0.53c-0.35,0.28-0.6,0.53-0.75,0.74
		c-0.15,0.21-0.22,0.49-0.22,0.85v0.11l0.15,0.53l0.15-0.21L243.62,175.02z"/>
	<path d="M315.22,233.28c-2.79,2.05-5.64,3.69-8.58,4.93c-2.94,1.23-5.25,2.01-6.94,2.33c-1.69,0.32-3.71,0.58-6.04,0.79
		s-3.85,0.39-4.55,0.53c-3.08,0.64-6.07,0.78-8.95,0.42c-1.69-0.21-3.23-0.55-4.62-1.01c-1.39-0.46-2.66-1.1-3.8-1.91
		c-1.14-0.81-2.09-1.55-2.83-2.22c-0.75-0.67-1.52-1.62-2.31-2.86c-0.8-1.23-1.39-2.19-1.79-2.86c-0.4-0.67-0.95-1.71-1.64-3.12
		c-0.7-1.41-1.14-2.36-1.34-2.86c-1.79-3.39-2.81-7.17-3.06-11.33c-0.25-4.17,0.32-7.48,1.72-9.96c3.58-6.42,11.19-10.2,22.82-11.33
		c0.99-0.07,2.46-0.37,4.4-0.9c1.94-0.53,3.83-1.04,5.67-1.54c1.84-0.49,3.95-0.86,6.34-1.11c2.38-0.25,4.57-0.28,6.56-0.11
		c1.99,0.18,4.03,0.79,6.12,1.85c2.09,1.06,3.83,2.58,5.22,4.55c0.7,0.92,1.34,2.07,1.94,3.44c0.6,1.38,0.89,2.35,0.89,2.91
		c0,0.28,0.55,1.24,1.64,2.86c2.39,3.53,3.58,7.34,3.58,11.44c0.1,2.26-0.03,3.97-0.37,5.14c-0.35,1.17-1.07,2.59-2.16,4.29
		C321.34,228.34,318.7,230.88,315.22,233.28z M260.78,211.25c0,1.34,0.05,2.6,0.15,3.76c0.1,1.17,0.2,2.03,0.3,2.59
		c0.1,0.57,0.3,1.36,0.6,2.38c0.3,1.02,0.5,1.78,0.6,2.28c0.6-4.94,0.99-7.7,1.19-8.26c0.1-0.35,0.2-0.71,0.3-1.06
		c0.1-0.35,0.25-0.76,0.45-1.22c0.2-0.46,0.42-0.97,0.67-1.54c0.25-0.56,0.52-1.15,0.82-1.75c0.3-0.6,0.65-1.23,1.04-1.91
		c0.4-0.67,0.79-1.29,1.19-1.85c0.79-1.13,1.72-2.21,2.76-3.23c1.04-1.02,2.14-1.92,3.28-2.7c1.14-0.78,2.11-1.41,2.91-1.91
		c0.79-0.49,1.66-0.99,2.61-1.48c0.95-0.49,1.47-0.78,1.57-0.85l-3.13,0.42c-6.76,1.55-11.54,4.06-14.32,7.52
		c-0.6,0.78-1.24,1.84-1.94,3.18C261.22,206.91,260.88,208.78,260.78,211.25z M268.83,225.34c-0.3-1.13-0.67-2.19-1.12-3.18
		c-0.45-0.99-0.85-1.75-1.19-2.28c-0.35-0.53-0.65-1.09-0.9-1.69c-0.25-0.6-0.42-1.18-0.52-1.75c0-0.35-0.05-0.32-0.15,0.11
		c-0.7,3.67-0.65,7.06,0.15,10.17l0.6,1.48c0.5,0.92,1.39,1.98,2.69,3.18c1.29,1.2,2.46,2.19,3.51,2.97
		c1.04,0.78,1.66,1.17,1.86,1.17c-0.2-0.35-0.4-0.67-0.6-0.95c-0.2-0.28-0.4-0.56-0.6-0.85
		C271.17,231.8,269.93,229.01,268.83,225.34z M267.19,216.44c0.2,0.57,0.3,0.57,0.3,0l0.15-0.95c0.2-1.91,0.65-3.79,1.34-5.67
		c0.69-1.87,1.29-3.23,1.79-4.08c0.5-0.85,0.69-1.27,0.6-1.27c-0.2,0-0.75,0.58-1.64,1.75s-1.44,1.96-1.64,2.38
		C266.89,211.36,266.59,213.97,267.19,216.44z M270.47,235.3c-1.1-0.78-1.64-1.09-1.64-0.95c0,0.21,0.65,0.92,1.94,2.12
		c1.09,0.99,2.31,1.82,3.65,2.49c1.34,0.67,2.59,1.13,3.73,1.38c1.14,0.25,2.19,0.42,3.13,0.53c0.95,0.11,1.79,0.16,2.54,0.16
		s1.17,0,1.27,0l-2.09-0.53C278.23,239.36,274.05,237.63,270.47,235.3z M313.58,220.25c0.2-3.88-1.14-7.98-4.03-12.29
		c-2.19-3.25-5.02-5.7-8.5-7.36c-3.48-1.66-6.84-2.5-10.07-2.54c-3.23-0.03-6.14,0.28-8.73,0.95c-2.59,0.67-4.47,1.5-5.67,2.49
		c-4.08,3.88-5.97,8.62-5.67,14.19c0.2,3.96,0.94,6.85,2.24,8.69c0.6,0.85,2.21,1.84,4.85,2.97c2.63,1.13,5.2,1.94,7.68,2.44
		c1.49,0.28,3.03,0.44,4.62,0.48c1.59,0.04,3.03-0.02,4.33-0.16c1.29-0.14,2.54-0.33,3.73-0.58c1.19-0.25,2.24-0.49,3.13-0.74
		c0.89-0.25,1.69-0.46,2.39-0.64c0.7-0.18,1.22-0.25,1.57-0.21c0.35,0.04,0.52,0.2,0.52,0.48c0,0.21-0.52,0.55-1.57,1.01
		c-1.04,0.46-2.54,0.9-4.47,1.32s-4.1,0.73-6.49,0.9c-2.39,0.18-5.1,0-8.13-0.53c-3.04-0.53-5.99-1.43-8.88-2.7
		c-1.1-0.49-1.64-0.71-1.64-0.64c0,0.21,0.27,0.69,0.82,1.43c0.55,0.74,1.42,1.66,2.61,2.75c1.19,1.1,2.69,2.07,4.47,2.91
		c1.79,0.85,3.9,1.48,6.34,1.91c2.44,0.42,5.2,0.35,8.28-0.21c1.09-0.07,2.24-0.35,3.43-0.85c1.29-0.42,3.11-1.54,5.45-3.34
		c2.33-1.8,3.95-3.34,4.85-4.61C312.44,226.01,313.28,223.5,313.58,220.25z M272.86,229.68c2.19,3.74,5.49,6.48,9.92,8.21
		c4.42,1.73,8.13,2.1,11.11,1.11c0.89-0.35,1.37-0.55,1.42-0.58c0.05-0.04-0.28-0.05-0.97-0.05c-10.94,0.21-18.35-3.64-22.23-11.55
		l-1.04-1.7C270.77,225.55,271.37,227.07,272.86,229.68z M299.41,196.95c-0.2,0.07-0.42,0.05-0.67-0.05
		c-0.25-0.11-0.62-0.26-1.12-0.48c-0.5-0.21-1.04-0.42-1.64-0.64c-1.49-0.49-4.97-0.17-10.44,0.95c0.2,0,1.02,0,2.46,0
		s2.44,0.02,2.98,0.05c0.54,0.04,1.59,0.12,3.13,0.26c1.54,0.14,2.76,0.34,3.65,0.58c0.89,0.25,2.06,0.65,3.5,1.22
		c1.44,0.57,2.66,1.22,3.66,1.96c0.99,0.74,2.11,1.7,3.36,2.86c1.24,1.17,2.31,2.45,3.21,3.87c1.29,1.84,2.24,3.57,2.83,5.19
		c0.6,1.62,0.94,2.95,1.04,3.97c0.1,1.02,0.15,2.05,0.15,3.07c0,1.02,0,1.82,0,2.38c0.89-1.98,1.39-3.11,1.49-3.39
		c0.4-5.08,0.25-8.72-0.45-10.91c-2.09-6.21-6.52-10.1-13.28-11.65c-2.38-0.49-3.63-0.6-3.73-0.32c0.2,0.14,0.3,0.34,0.3,0.58
		C299.86,196.72,299.71,196.88,299.41,196.95z M307.61,190.81c-1.49-0.35-3.53-0.44-6.12-0.26c-2.59,0.18-4.97,0.55-7.16,1.11
		c-0.7,0.14-1.02,0.23-0.97,0.26c0.05,0.04,0.27,0.02,0.67-0.05c4.48-0.56,8.15-0.64,11.04-0.21c1.19,0.14,2.46,0.44,3.8,0.9
		c1.34,0.46,2.61,1.04,3.8,1.75c1.19,0.71,2.14,1.41,2.83,2.12c0.5,0.5,0.79,0.78,0.89,0.85c0.2,0.07-0.05-0.32-0.75-1.17
		C313.58,193.21,310.9,191.44,307.61,190.81z M297.32,193.14c2.48,0.42,5.42,1.15,8.8,2.17c3.38,1.02,5.82,1.89,7.31,2.6
		c1.29,0.71,1.94,0.99,1.94,0.85c0-0.14-0.4-0.56-1.19-1.27c-0.8-0.71-1.96-1.52-3.51-2.44c-1.54-0.92-3.11-1.52-4.7-1.8
		c-3.08-0.64-5.97-0.78-8.65-0.42C296.73,192.96,296.73,193.07,297.32,193.14z M321.79,207.97c-0.1,0.07-0.05,1.13,0.15,3.18
		c0.3,2.26,0.27,4.38-0.07,6.36c-0.35,1.98-0.77,3.62-1.27,4.93c-0.5,1.31-1.42,2.72-2.76,4.24c-1.34,1.52-2.39,2.63-3.13,3.34
		c-0.75,0.71-2.06,1.8-3.95,3.28c-1.89,1.48-3.18,2.51-3.88,3.07c2.39-1.2,4.08-2.12,5.07-2.75c4.28-2.54,7.51-5.6,9.7-9.16
		c2.19-3.56,2.88-7.29,2.09-11.17C323.03,210.23,322.38,208.46,321.79,207.97z M318.51,208.07l0.45,1.06c0.1-0.21,0.1-1.09,0-2.65
		c-0.1-1.41-0.3-2.42-0.6-3.02c-0.3-0.6-0.99-1.29-2.09-2.07c-1.19-0.92-1.84-1.34-1.94-1.27c-0.1,0.07,0.1,0.37,0.6,0.9
		c0.5,0.53,1.12,1.43,1.86,2.7C317.53,205,318.1,206.45,318.51,208.07z M318.35,221.95l-0.15,0.74c0.6-0.64,1.14-2.08,1.64-4.34
		v-0.42l-1.04,2.33C318.51,220.96,318.35,221.53,318.35,221.95z"/>
	<path d="M356.24,235.3c-5.97-2.05-10.14-6.32-12.53-12.82c-0.6-1.76-1.04-3.35-1.34-4.77c-0.3-1.41-0.47-2.84-0.52-4.29
		c-0.05-1.45-0.05-3.18,0-5.19c0.05-2.01,0.02-4.5-0.08-7.47c-7.66,0.14-11.59,0.18-11.78,0.11c-0.3-0.14-0.5-0.37-0.6-0.69
		c-0.1-0.32,0-0.55,0.3-0.69c0.1-0.07,1.84-0.21,5.22-0.42c3.38-0.21,5.47-0.32,6.26-0.32c0.2,0,0.37-0.02,0.52-0.05
		c0.15-0.04,0.22-0.11,0.22-0.21c0-0.11,0-0.25,0-0.42c0-0.17,0-0.37,0-0.58c-0.89,0-1.86,0-2.91,0c-1.04,0-1.89,0.02-2.54,0.05
		c-0.65,0.04-1.32,0.05-2.01,0.05c-0.7,0-1.25-0.02-1.64-0.05c-0.4-0.04-0.77-0.05-1.12-0.05c-0.35,0-0.6-0.02-0.75-0.05
		c-0.15-0.03-0.27-0.09-0.37-0.16c-0.89-1.2-1.19-1.98-0.89-2.33c0.3-0.42,1.57-0.79,3.8-1.11c2.24-0.32,4.23-0.55,5.97-0.69
		c1.74-0.14,2.76-0.21,3.06-0.21c0-8.62,0.65-13.81,1.94-15.57c0.69-0.92,1.49-1.22,2.39-0.9c0.89,0.32,0.84,0.69-0.15,1.11
		c-0.5,0.21-0.85,0.78-1.04,1.69c-0.2,0.85-0.42,2.22-0.67,4.13c-0.25,1.91-0.32,2.9-0.22,2.97c0,0.07,0.3-0.37,0.9-1.32
		s1.29-1.94,2.09-2.97c0.79-1.02,1.44-1.57,1.94-1.64c0.4-0.14,0.65-0.42,0.75-0.85c0.3-0.78,0.72-1.15,1.27-1.11
		c0.54,0.04,0.97,0.23,1.27,0.58c0.2,0.35,0.35,0.32,0.45-0.11c0.4-1.34,0.9-2.01,1.49-2.01c0.4,0.07,0.6,0.25,0.6,0.53
		c0,0.28-0.15,0.92-0.45,1.91c-0.2,0.64-0.65,3.04-1.34,7.2c0,0.07,0.15-0.04,0.45-0.32c1.59-1.48,2.48-1.8,2.69-0.95
		c0.1,0.21-0.45,1.06-1.64,2.54c-0.6,0.71-1.04,1.29-1.34,1.75c-0.3,0.46-0.47,0.78-0.52,0.95c-0.05,0.18-0.07,0.46-0.07,0.85
		c0,0.39-0.05,0.69-0.15,0.9c2.19,0.07,4.97,0.14,8.35,0.21c6.56,0.21,9.99,0.49,10.29,0.85c0.1,0.42-0.15,0.69-0.75,0.79
		s-2.09,0.2-4.48,0.26c-9.05,0.35-13.57,0.74-13.57,1.17c0,0.14,0.6,0.25,1.79,0.32c1.19,0.07,2.66,0.12,4.4,0.16
		c1.74,0.04,3.51,0.09,5.3,0.16c1.79,0.07,3.38,0.16,4.77,0.26c1.39,0.11,2.24,0.26,2.54,0.48c0.3,0.14,0.4,0.39,0.3,0.74
		c0,0.35-0.37,0.58-1.12,0.69c-0.75,0.11-2.51,0.26-5.29,0.48c-1.99,0.07-3.68,0.14-5.07,0.21c3.38,0.21,5.97,0.39,7.76,0.53
		c0.69,0.07,1.34,0.12,1.94,0.16c0.6,0.04,1.07,0.05,1.42,0.05c0.35,0,0.69,0,1.04,0c0.35,0,0.6,0.02,0.75,0.05
		c0.15,0.04,0.3,0.05,0.45,0.05s0.25,0.04,0.3,0.11c0.05,0.07,0.12,0.18,0.22,0.32c0.1,0.28,0,0.53-0.3,0.74
		c-0.3,0.21-2.29,0.18-5.97-0.11c-1.59-0.07-6.66-0.21-15.21-0.42v2.33c0.1,2.9,0.94,7.29,2.54,13.19
		c1.59,5.9,3.08,10.12,4.47,12.66c0.5,0.92,0.97,1.52,1.42,1.8c0.45,0.28,1.47,0.64,3.06,1.06c2.98,0.71,5.37,0.78,7.16,0.21
		c1.79-0.56,3.4-1.25,4.85-2.07c1.44-0.81,2.48-1.43,3.13-1.85c0.65-0.42,1.12-0.6,1.42-0.53c0.3,0.14,0.45,0.3,0.45,0.48
		c0,0.18-0.13,0.41-0.37,0.69c-0.25,0.28-0.52,0.53-0.82,0.74c-0.3,0.21-0.75,0.53-1.34,0.95l1.19-0.42
		c1.19-0.42,1.96-0.48,2.31-0.16c0.35,0.32,0.17,0.9-0.52,1.75c-0.5,0.64-0.6,0.95-0.3,0.95c0.3,0,0.77,0.25,1.42,0.74
		c0.65,0.5,1.17,0.64,1.57,0.42c0.3-0.21,0.67-0.33,1.12-0.37c0.45-0.04,0.82,0.07,1.12,0.32c0.3,0.25,0.15,0.79-0.45,1.64
		c-0.5,0.64-0.92,1.11-1.27,1.43c-0.35,0.32-0.65,0.53-0.89,0.63c-0.25,0.11-0.77,0.27-1.57,0.48c-0.8,0.21-1.54,0.42-2.24,0.63
		c-3.28,1.13-6.62,1.38-9.99,0.74c-0.5,0-1.29-0.21-2.39-0.64c-0.5-0.14-1.27-0.2-2.31-0.16c-1.04,0.04-2.16-0.12-3.36-0.48
		c-0.6-0.21-1.17-0.44-1.71-0.69c-0.55-0.25-1.17-0.51-1.87-0.79C358.08,235.97,357.24,235.65,356.24,235.3z M332.68,195.89
		c0.3,0,1.99-0.18,5.07-0.53c2.98-0.42,4.48-0.74,4.48-0.95c-0.1-0.14-1.77-0.03-5,0.32c-3.23,0.35-5.05,0.6-5.45,0.74
		c-0.4,0.21-0.3,0.35,0.3,0.42C332.28,195.96,332.48,195.96,332.68,195.89z M354.15,232.22c-0.2-0.21-0.45-0.58-0.75-1.11
		c-0.3-0.53-0.82-1.41-1.57-2.65c-0.75-1.23-1.67-2.63-2.76-4.18c-1.1-1.41-2.74-4.17-4.92-8.26c-0.1,0.28,0.1,1.29,0.6,3.02
		c0.5,1.73,0.9,2.95,1.19,3.65c1.49,4.02,3.98,7.2,7.46,9.53c0.6,0.42,0.94,0.6,1.04,0.53
		C354.45,232.68,354.35,232.51,354.15,232.22z M345.06,198.65c0.5-0.78,0.6-1.17,0.3-1.17
		C345.25,197.55,345.15,197.94,345.06,198.65z M349.08,200.66c-0.2,0-0.5,0.04-0.9,0.11c-0.8,0-1.27,0.04-1.42,0.11
		c-0.15,0.07-0.27,0.35-0.37,0.85c-0.2,0.92-0.3,1.89-0.3,2.91c0,1.02,0.05,2.01,0.15,2.97c0.1,0.95,0.22,1.89,0.37,2.81
		c0.15,0.92,0.32,1.77,0.52,2.54c0.2,0.78,0.4,1.45,0.6,2.01c0.2,0.57,0.45,1.17,0.75,1.8c-0.3-4.31-0.45-7.71-0.45-10.22
		c0-2.51,0.2-4.15,0.6-4.93L349.08,200.66z M347.59,192.08c0.99-2.47,1.39-3.92,1.19-4.34l-1.79,4.13c-0.1,0.35-0.15,0.57-0.15,0.64
		c0,0.42,0.15,0.49,0.45,0.21C347.39,192.57,347.49,192.36,347.59,192.08z M348.04,198.54c0.5,0,0.79-0.03,0.89-0.11
		c0.2-0.14,0.2-0.37,0-0.69c-0.2-0.32-0.4-0.48-0.6-0.48c-0.4,0-0.6,0.07-0.6,0.21c0,0.14-0.07,0.32-0.22,0.53s-0.17,0.35-0.07,0.42
		C347.54,198.51,347.74,198.54,348.04,198.54z M348.64,196c0.1,0,0.15-0.07,0.15-0.21c0-0.14-0.05-0.21-0.15-0.21
		c-0.2,0-0.3,0.07-0.3,0.21C348.34,195.93,348.44,196,348.64,196z M356.84,228.3c-1.49-3.39-2.79-6.79-3.88-10.22
		c-1.09-3.42-1.94-6.83-2.54-10.22c0-0.21-0.05-0.49-0.15-0.85l-0.45-1.91l0.15,5.19c0.4,6.85,1.04,11.16,1.94,12.92
		c0.4,0.64,1.24,1.64,2.54,3.02C355.74,227.62,356.54,228.3,356.84,228.3z M353.11,197.69c0,0.28,0.84,0.39,2.54,0.32
		c0.89-0.07,3.08-0.21,6.56-0.42c-0.9,0-2.19-0.07-3.88-0.21c-1,0-1.71-0.02-2.16-0.05c-0.45-0.04-0.97-0.05-1.57-0.05
		s-1,0.04-1.19,0.11C353.21,197.45,353.11,197.55,353.11,197.69z M357.59,233.39c1.09,0.99,2.14,1.41,3.13,1.27
		c-2.79-1.62-4.18-2.4-4.18-2.33L357.59,233.39z M376.16,232.59c-1.04,0.32-1.92,0.57-2.61,0.74c-0.7,0.18-1.49,0.3-2.39,0.37
		c-1.39,0.14-2.04,0.25-1.94,0.32c0.1,0.14,0.79,0.18,2.09,0.11c0.5,0,1.02-0.03,1.57-0.11c0.54-0.07,1.02-0.16,1.42-0.26
		c0.4-0.11,0.79-0.23,1.19-0.37c0.4-0.14,0.75-0.28,1.04-0.42c0.3-0.14,0.57-0.28,0.82-0.42c0.25-0.14,0.47-0.25,0.67-0.32
		c0.2-0.07,0.4-0.18,0.6-0.32C378.02,232.05,377.2,232.28,376.16,232.59z M379.81,235.51c1.29-0.42,1.94-0.81,1.94-1.17
		c0-0.64-1.29-0.6-3.88,0.11c-2.39,0.63-3.83,1.02-4.33,1.17c0.3,0.07,0.65,0.14,1.04,0.21c0.4,0.07,0.72,0.12,0.97,0.16
		c0.25,0.04,0.55,0.05,0.9,0.05c0.35,0,0.67,0,0.97,0c0.3,0,0.65-0.05,1.04-0.16C378.87,235.77,379.31,235.65,379.81,235.51z"/>
	<path d="M446.79,233.28c-2.79,2.05-5.64,3.69-8.58,4.93c-2.93,1.23-5.25,2.01-6.94,2.33c-1.69,0.32-3.71,0.58-6.04,0.79
		c-2.34,0.21-3.85,0.39-4.55,0.53c-3.08,0.64-6.07,0.78-8.95,0.42c-1.69-0.21-3.23-0.55-4.62-1.01c-1.39-0.46-2.66-1.1-3.8-1.91
		c-1.14-0.81-2.09-1.55-2.83-2.22c-0.75-0.67-1.52-1.62-2.31-2.86c-0.8-1.23-1.39-2.19-1.79-2.86c-0.4-0.67-0.95-1.71-1.64-3.12
		c-0.7-1.41-1.14-2.36-1.34-2.86c-1.79-3.39-2.81-7.17-3.06-11.33c-0.25-4.17,0.32-7.48,1.71-9.96c3.58-6.42,11.19-10.2,22.82-11.33
		c0.99-0.07,2.46-0.37,4.4-0.9c1.94-0.53,3.83-1.04,5.67-1.54c1.84-0.49,3.95-0.86,6.34-1.11c2.39-0.25,4.57-0.28,6.56-0.11
		c1.99,0.18,4.03,0.79,6.12,1.85c2.09,1.06,3.83,2.58,5.22,4.55c0.69,0.92,1.34,2.07,1.94,3.44c0.6,1.38,0.89,2.35,0.89,2.91
		c0,0.28,0.55,1.24,1.64,2.86c2.39,3.53,3.58,7.34,3.58,11.44c0.1,2.26-0.03,3.97-0.37,5.14c-0.35,1.17-1.07,2.59-2.16,4.29
		C452.9,228.34,450.27,230.88,446.79,233.28z M392.34,211.25c0,1.34,0.05,2.6,0.15,3.76c0.1,1.17,0.2,2.03,0.3,2.59
		c0.1,0.57,0.3,1.36,0.6,2.38c0.3,1.02,0.5,1.78,0.6,2.28c0.6-4.94,0.99-7.7,1.19-8.26c0.1-0.35,0.2-0.71,0.3-1.06
		c0.1-0.35,0.25-0.76,0.45-1.22c0.2-0.46,0.42-0.97,0.67-1.54c0.25-0.56,0.52-1.15,0.82-1.75c0.3-0.6,0.65-1.23,1.04-1.91
		c0.4-0.67,0.79-1.29,1.19-1.85c0.79-1.13,1.72-2.21,2.76-3.23c1.04-1.02,2.14-1.92,3.28-2.7c1.14-0.78,2.11-1.41,2.91-1.91
		c0.79-0.49,1.66-0.99,2.61-1.48c0.94-0.49,1.47-0.78,1.57-0.85l-3.13,0.42c-6.76,1.55-11.54,4.06-14.32,7.52
		c-0.6,0.78-1.25,1.84-1.94,3.18C392.79,206.91,392.44,208.78,392.34,211.25z M400.4,225.34c-0.3-1.13-0.67-2.19-1.12-3.18
		c-0.45-0.99-0.85-1.75-1.19-2.28c-0.35-0.53-0.65-1.09-0.9-1.69c-0.25-0.6-0.42-1.18-0.52-1.75c0-0.35-0.05-0.32-0.15,0.11
		c-0.7,3.67-0.65,7.06,0.15,10.17l0.6,1.48c0.5,0.92,1.39,1.98,2.69,3.18c1.29,1.2,2.46,2.19,3.5,2.97
		c1.04,0.78,1.66,1.17,1.87,1.17c-0.2-0.35-0.4-0.67-0.6-0.95c-0.2-0.28-0.4-0.56-0.6-0.85C402.73,231.8,401.49,229.01,400.4,225.34
		z M398.75,216.44c0.2,0.57,0.3,0.57,0.3,0l0.15-0.95c0.2-1.91,0.65-3.79,1.34-5.67c0.69-1.87,1.29-3.23,1.79-4.08
		c0.5-0.85,0.69-1.27,0.6-1.27c-0.2,0-0.75,0.58-1.64,1.75c-0.9,1.17-1.44,1.96-1.64,2.38
		C398.46,211.36,398.16,213.97,398.75,216.44z M402.04,235.3c-1.09-0.78-1.64-1.09-1.64-0.95c0,0.21,0.65,0.92,1.94,2.12
		c1.09,0.99,2.31,1.82,3.65,2.49c1.34,0.67,2.58,1.13,3.73,1.38c1.14,0.25,2.19,0.42,3.13,0.53c0.94,0.11,1.79,0.16,2.54,0.16
		s1.17,0,1.27,0l-2.09-0.53C409.79,239.36,405.62,237.63,402.04,235.3z M445.15,220.25c0.2-3.88-1.14-7.98-4.03-12.29
		c-2.19-3.25-5.02-5.7-8.5-7.36c-3.48-1.66-6.84-2.5-10.07-2.54c-3.23-0.03-6.14,0.28-8.73,0.95c-2.59,0.67-4.47,1.5-5.67,2.49
		c-4.08,3.88-5.97,8.62-5.67,14.19c0.2,3.96,0.94,6.85,2.24,8.69c0.6,0.85,2.21,1.84,4.85,2.97c2.63,1.13,5.2,1.94,7.68,2.44
		c1.49,0.28,3.03,0.44,4.62,0.48c1.59,0.04,3.03-0.02,4.33-0.16c1.29-0.14,2.54-0.33,3.73-0.58c1.19-0.25,2.24-0.49,3.13-0.74
		c0.9-0.25,1.69-0.46,2.39-0.64c0.7-0.18,1.22-0.25,1.57-0.21c0.35,0.04,0.52,0.2,0.52,0.48c0,0.21-0.52,0.55-1.57,1.01
		c-1.04,0.46-2.54,0.9-4.47,1.32c-1.94,0.42-4.1,0.73-6.49,0.9c-2.39,0.18-5.1,0-8.13-0.53c-3.04-0.53-5.99-1.43-8.88-2.7
		c-1.1-0.49-1.64-0.71-1.64-0.64c0,0.21,0.27,0.69,0.82,1.43c0.55,0.74,1.42,1.66,2.61,2.75c1.19,1.1,2.69,2.07,4.47,2.91
		c1.79,0.85,3.9,1.48,6.34,1.91c2.44,0.42,5.2,0.35,8.28-0.21c1.09-0.07,2.24-0.35,3.43-0.85c1.29-0.42,3.11-1.54,5.44-3.34
		c2.33-1.8,3.95-3.34,4.85-4.61C444,226.01,444.85,223.5,445.15,220.25z M404.42,229.68c2.19,3.74,5.49,6.48,9.92,8.21
		c4.42,1.73,8.13,2.1,11.11,1.11c0.9-0.35,1.37-0.55,1.42-0.58c0.05-0.04-0.28-0.05-0.97-0.05c-10.94,0.21-18.35-3.64-22.23-11.55
		l-1.04-1.7C402.33,225.55,402.93,227.07,404.42,229.68z M430.97,196.95c-0.2,0.07-0.42,0.05-0.67-0.05
		c-0.25-0.11-0.62-0.26-1.12-0.48c-0.5-0.21-1.04-0.42-1.64-0.64c-1.49-0.49-4.97-0.17-10.44,0.95c0.2,0,1.02,0,2.46,0
		c1.44,0,2.44,0.02,2.98,0.05c0.54,0.04,1.59,0.12,3.13,0.26c1.54,0.14,2.76,0.34,3.65,0.58c0.89,0.25,2.06,0.65,3.5,1.22
		c1.44,0.57,2.66,1.22,3.66,1.96c0.99,0.74,2.11,1.7,3.36,2.86c1.24,1.17,2.31,2.45,3.21,3.87c1.29,1.84,2.24,3.57,2.83,5.19
		c0.6,1.62,0.94,2.95,1.04,3.97c0.1,1.02,0.15,2.05,0.15,3.07c0,1.02,0,1.82,0,2.38c0.89-1.98,1.39-3.11,1.49-3.39
		c0.4-5.08,0.25-8.72-0.45-10.91c-2.09-6.21-6.51-10.1-13.28-11.65c-2.39-0.49-3.63-0.6-3.73-0.32c0.2,0.14,0.3,0.34,0.3,0.58
		C431.42,196.72,431.27,196.88,430.97,196.95z M439.18,190.81c-1.49-0.35-3.53-0.44-6.12-0.26c-2.59,0.18-4.97,0.55-7.16,1.11
		c-0.7,0.14-1.02,0.23-0.97,0.26c0.05,0.04,0.27,0.02,0.67-0.05c4.48-0.56,8.15-0.64,11.04-0.21c1.19,0.14,2.46,0.44,3.8,0.9
		c1.34,0.46,2.61,1.04,3.8,1.75c1.19,0.71,2.14,1.41,2.83,2.12c0.5,0.5,0.79,0.78,0.89,0.85c0.2,0.07-0.05-0.32-0.75-1.17
		C445.15,193.21,442.46,191.44,439.18,190.81z M428.89,193.14c2.48,0.42,5.42,1.15,8.8,2.17c3.38,1.02,5.82,1.89,7.31,2.6
		c1.29,0.71,1.94,0.99,1.94,0.85c0-0.14-0.4-0.56-1.19-1.27c-0.8-0.71-1.96-1.52-3.51-2.44c-1.54-0.92-3.11-1.52-4.7-1.8
		c-3.08-0.64-5.97-0.78-8.65-0.42C428.29,192.96,428.29,193.07,428.89,193.14z M453.35,207.97c-0.1,0.07-0.05,1.13,0.15,3.18
		c0.3,2.26,0.27,4.38-0.08,6.36c-0.35,1.98-0.77,3.62-1.27,4.93c-0.5,1.31-1.42,2.72-2.76,4.24c-1.34,1.52-2.39,2.63-3.13,3.34
		c-0.75,0.71-2.06,1.8-3.95,3.28c-1.89,1.48-3.18,2.51-3.88,3.07c2.39-1.2,4.08-2.12,5.07-2.75c4.27-2.54,7.51-5.6,9.7-9.16
		c2.19-3.56,2.88-7.29,2.09-11.17C454.59,210.23,453.95,208.46,453.35,207.97z M450.07,208.07l0.45,1.06c0.1-0.21,0.1-1.09,0-2.65
		c-0.1-1.41-0.3-2.42-0.6-3.02c-0.3-0.6-1-1.29-2.09-2.07c-1.19-0.92-1.84-1.34-1.94-1.27c-0.1,0.07,0.1,0.37,0.6,0.9
		c0.5,0.53,1.12,1.43,1.86,2.7C449.1,205,449.67,206.45,450.07,208.07z M449.92,221.95l-0.15,0.74c0.6-0.64,1.14-2.08,1.64-4.34
		v-0.42l-1.04,2.33C450.07,220.96,449.92,221.53,449.92,221.95z"/>
	<path d="M499.59,200.45c-0.2,0.14-0.77,0.21-1.72,0.21c-0.95,0-2.31,0.09-4.1,0.26c-1.79,0.18-3.63,0.58-5.52,1.22
		c-1.69,0.57-4.47,1.71-8.35,3.44c-3.88,1.73-6.07,2.81-6.56,3.23c-0.2,0.21-0.37,2.93-0.52,8.16c-0.15,5.23-0.22,10.03-0.22,14.41
		c0.2,7.27-0.05,11.05-0.75,11.33c-0.7,0.28-1.19,0.21-1.49-0.21c-0.3-0.35-0.4-1.31-0.3-2.86c0.1-1.55,0.35-2.79,0.75-3.71
		l-0.15-0.21c-0.2,0.28-0.5,0.41-0.89,0.37c-0.4-0.04-0.7-0.19-0.9-0.48l-1.64-20.66c-0.1,0.07-0.3,1.64-0.6,4.71
		c-0.3,3.07-0.45,5.17-0.45,6.3c0,1.48,0.1,3.27,0.3,5.35c0.2,2.08,0.27,3.64,0.22,4.66c-0.05,1.02-0.32,1.68-0.82,1.96
		c-0.2,0.07-0.4,0.09-0.6,0.05c-0.2-0.04-0.32-0.07-0.37-0.11c-0.05-0.04-0.2-0.14-0.45-0.32c-0.25-0.17-0.42-0.3-0.52-0.37
		c0-2.47,0-5.1,0-7.89c0-2.79,0-5.23,0-7.31c0-2.08,0-4.25,0-6.51c0-2.26,0-4.2,0-5.83c0-1.62,0-3.23,0-4.82s0.02-2.93,0.08-4.03
		c0.05-1.09,0.1-2.08,0.15-2.97c0.05-0.88,0.1-1.54,0.15-1.96c0.05-0.42,0.12-0.67,0.22-0.74c0.3-0.14,0.57-0.12,0.82,0.05
		c0.25,0.18,0.47,0.41,0.67,0.69c0.2,0.28,0.3,0.53,0.3,0.74c0.3,0.92,0.5,0.81,0.6-0.32c0.1-0.35,0.15-0.74,0.15-1.17
		c0-0.78,0.12-1.32,0.37-1.64c0.25-0.32,0.62-0.44,1.12-0.37c0.4,0.14,0.6,0.46,0.6,0.95l1.19-4.34c0-0.21,0.17-0.33,0.52-0.37
		c0.35-0.04,0.62,0.02,0.82,0.16c0.3,0.35,0.4,0.9,0.3,1.64c-0.1,0.74-0.2,1.25-0.3,1.54c-0.1,0.21-0.1,0.32,0,0.32
		c0.1,0,0.25-0.02,0.45-0.05c0.2-0.04,0.45,0.02,0.75,0.16c0.4,0.21,0.65,1.52,0.75,3.92c0,0.42,0,0.76,0,1.01c0,0.25,0,0.57,0,0.95
		c0,0.39,0,0.79,0,1.22c0.1-0.07,0.77-0.44,2.01-1.11c1.24-0.67,2.48-1.27,3.73-1.8c1.24-0.53,3.06-1.11,5.44-1.75
		s4.92-1.06,7.61-1.27c1.59-0.14,2.66-0.16,3.21-0.05c0.54,0.11,0.77,0.37,0.67,0.79c-0.1,0.21-0.5,0.42-1.19,0.64
		c-0.7,0.21-1.52,0.42-2.46,0.64c-0.95,0.21-1.62,0.42-2.01,0.63c-0.4,0.21-0.57,0.32-0.52,0.32c0.05,0,0.17,0,0.37,0
		c6.66-1.27,10.29-1.8,10.89-1.59c0.2,0.14,0.3,0.34,0.3,0.58c0,0.25-0.1,0.44-0.3,0.58c-0.3,0.14-1.69,0.39-4.18,0.74l-4.48,0.85
		c0.1,0,0.55,0,1.34,0c2.69,0,4.33,0.18,4.92,0.53C499.89,199.46,500.08,199.95,499.59,200.45z M466.18,205
		c-0.1,0.42-0.15,0.6-0.15,0.53v0.74C466.12,205.85,466.18,205.42,466.18,205z M466.47,197.69l-0.15,5.61
		c0,0.21,0.05,0.07,0.15-0.42v-0.32C466.97,199.17,466.97,197.55,466.47,197.69z M470.5,211.67l0.15-1.59l-0.75,0.74
		c-0.5,0.42-0.75,0.94-0.75,1.54c0,0.6,0.15,3.12,0.45,7.57C469.9,216.97,470.2,214.22,470.5,211.67z M470.95,205.64l-0.3,0.42
		c0,0.42,0.1,0.64,0.3,0.64c0.1,0,0.17-0.14,0.22-0.42C471.22,205.99,471.15,205.78,470.95,205.64z M470.8,199.49
		c0,1.84,0.1,2.75,0.3,2.75c0.5-0.28,0.65-2.12,0.45-5.51c-0.1-1.48-0.25-1.55-0.45-0.21L470.8,199.49z M475.42,203.52
		c1.09-0.71,1.59-1.09,1.49-1.17c-0.2-0.14-1.19,0.35-2.98,1.48l-0.45,0.53c-0.1,0.35,0,0.42,0.3,0.21
		C474.08,204.44,474.63,204.08,475.42,203.52z M487.13,196.79c0.35-0.18,0.5-0.28,0.45-0.32c-0.05-0.03-0.35,0-0.9,0.11
		c-0.55,0.11-1.27,0.3-2.16,0.58c-0.89,0.28-1.86,0.6-2.91,0.95c-1.04,0.35-2.21,0.85-3.51,1.48c-1.29,0.64-2.49,1.27-3.58,1.91
		c-0.4,0.28-0.47,0.41-0.22,0.37c0.25-0.04,1.02-0.33,2.31-0.9c2.09-0.71,3.63-1.2,4.62-1.48c0.3-0.07,0.72-0.23,1.27-0.48
		c0.55-0.25,1.12-0.49,1.72-0.74c0.6-0.25,1.14-0.51,1.64-0.79C486.36,197.2,486.78,196.97,487.13,196.79z M480.94,202.78
		c-2.19,0.92-4.13,1.94-5.82,3.07c-0.3,0.21-0.3,0.25,0,0.11c0.4-0.14,1.44-0.6,3.13-1.38c0.99-0.42,1.99-0.85,2.98-1.27
		c0.99-0.42,1.81-0.78,2.46-1.06c0.65-0.28,1.22-0.53,1.72-0.74c0.5-0.21,0.94-0.42,1.34-0.63c-0.2,0-1.02,0.23-2.46,0.69
		C482.86,202.02,481.74,202.42,480.94,202.78z"/>
	<path d="M504.51,233.71c0.4-0.28,2.19-0.35,5.37-0.21c0.5,0,1.14,0,1.94,0h1.64c-0.1,0-0.25-0.03-0.45-0.11
		c-2.69-0.49-4.43-1.06-5.22-1.7c-0.4-0.42-0.6-0.92-0.6-1.48c0-0.64,0.25-0.99,0.75-1.06c0.4,0,0.69,0.2,0.89,0.58
		c0.2,0.39,0.37,0.69,0.52,0.9c0.15,0.21,0.37,0.39,0.67,0.53c0.3,0.14,0.5,0.25,0.6,0.32c0.1,0.07,0.42,0.16,0.97,0.27
		c0.54,0.11,0.97,0.2,1.27,0.26c-0.89-0.71-1.74-1.45-2.54-2.22c-1.09-1.13-0.95-1.73,0.45-1.8c0.5-0.07,0.89-0.02,1.19,0.16
		c0.3,0.18,0.4,0.41,0.3,0.69c-0.1,0.35,0.27,0.85,1.12,1.48c0.84,0.64,1.81,1.17,2.91,1.59l1.64,0.53c0.6,0,1.44-0.04,2.54-0.11
		c1.09-0.07,2.01-0.12,2.76-0.16c0.75-0.04,1.62-0.09,2.61-0.16c0.99-0.07,1.86-0.16,2.61-0.26c0.75-0.11,1.47-0.25,2.16-0.42
		c0.69-0.18,1.27-0.37,1.72-0.58c0.45-0.21,0.77-0.46,0.97-0.74c0.79-0.99,0.84-2.26,0.15-3.81c-0.6-1.41-1.52-2.65-2.76-3.71
		c-1.24-1.06-2.59-1.92-4.03-2.6c-1.44-0.67-3.41-1.69-5.89-3.07c-2.49-1.38-4.83-2.84-7.01-4.4c-3.18-2.26-5.15-4.25-5.89-5.98
		c-0.75-1.73-0.47-3.55,0.82-5.46c0.7-0.99,1.79-2.03,3.28-3.12c1.49-1.09,2.98-1.92,4.47-2.49c6.46-2.54,13.52-2.97,21.18-1.27
		c3.28,0.78,4.92,1.34,4.92,1.69c0,0.28-0.17,0.44-0.52,0.48c-0.35,0.04-0.77,0-1.27-0.11c-0.5-0.11-1.02-0.23-1.57-0.37
		c-0.55-0.14-1.07-0.26-1.57-0.37c-0.5-0.11-0.8-0.16-0.89-0.16c-0.1,0,0.2,0.2,0.89,0.58c0.69,0.39,1.32,0.85,1.86,1.38
		c0.55,0.53,0.57,0.9,0.08,1.11c-0.5,0.21,0.1,0.6,1.79,1.17l0.3,0.21c1.79,0.57,2.39,1.06,1.79,1.48c-0.1,0.07-0.2,0.11-0.3,0.11
		c-0.4,0.07-0.5,0.25-0.3,0.53c0.1,0.28,0.02,0.53-0.22,0.74c-0.25,0.21-0.55,0.32-0.9,0.32c-0.35,0-0.92-0.39-1.71-1.17
		c-0.5-0.42-0.85-0.71-1.04-0.85c-0.2-0.14-0.47-0.25-0.82-0.32c-0.35-0.07-0.92-0.14-1.72-0.21c-1.49-0.21-3.58-0.32-6.26-0.32
		c-1.49,0-2.89,0.07-4.18,0.21c-1.29,0.14-2.39,0.3-3.28,0.48c-0.89,0.18-1.64,0.35-2.24,0.53c-0.6,0.18-1.17,0.37-1.71,0.58
		c-0.55,0.21-0.97,0.35-1.27,0.42c0.1,0.42,0.2,0.78,0.3,1.06c0.1,0.28,0.22,0.58,0.37,0.9c0.15,0.32,0.37,0.67,0.67,1.06
		c0.3,0.39,0.65,0.72,1.04,1.01c1.09,0.92,4.23,2.44,9.4,4.55c5.17,2.12,8.65,3.81,10.44,5.08c1.39,1.06,2.29,2.01,2.69,2.86
		c0.4,0.85,0.62,1.77,0.67,2.75c0.05,0.99,0.32,1.94,0.82,2.86c0.4,0.85,0.6,1.98,0.6,3.39c0.1,1.41-0.2,2.61-0.89,3.6
		c-1.1,1.62-2.83,2.97-5.22,4.03c-2.39,1.06-5.52,1.87-9.4,2.44c-0.9,0.14-2.83,0.25-5.82,0.32c-2.98,0.07-4.97,0.07-5.97,0
		c-2.09-0.21-3.75-0.37-5-0.48c-1.25-0.11-2.74-0.42-4.48-0.95c-1.74-0.53-2.91-1.18-3.5-1.96
		C503.91,234.34,504.01,233.99,504.51,233.71z M512.56,199.39l-1.04,0.95c1.99-1.13,3.33-1.87,4.03-2.22
		c2.29-1.06,3.93-1.91,4.92-2.54l-4.18,1.48C514.7,197.9,513.46,198.68,512.56,199.39z M513.76,200.98
		c-1.39,0.99-2.09,1.8-2.09,2.44c0,0.42,0.75-0.07,2.24-1.48l0.6-0.74c0.3-0.56,0.4-0.85,0.3-0.85
		C514.7,200.34,514.35,200.55,513.76,200.98z M513.16,205.21c0,0.42,0.05,0.46,0.15,0.11c0.1-0.14,0.15-0.32,0.15-0.53
		c0.1-0.14,0.15-0.25,0.15-0.32l-0.45,0.64V205.21z M514.65,209.45c-0.1,0.71,0.4,1.31,1.49,1.8c0.69,0.35,1.04,0.5,1.04,0.42
		l-0.45-0.42c-0.6-0.56-1.1-1.02-1.49-1.38C514.85,209.31,514.65,209.17,514.65,209.45z M516,204.15l-0.3,0.74
		c-0.3,0.78-0.13,1.75,0.52,2.91c0.65,1.17,1.62,2.21,2.91,3.12c1.69,1.13,4.3,2.49,7.83,4.08c3.53,1.59,6.44,2.67,8.73,3.23
		c0.9,0.21,2.39,1.06,4.48,2.54c0.5,0.42,0.79,0.53,0.89,0.32c0.1-0.07,0.1-0.32,0-0.74c-0.3-1.48-1.59-2.91-3.88-4.29
		c-2.29-1.38-4.77-2.54-7.46-3.5c-2.68-0.95-5.35-2.08-7.98-3.39c-2.64-1.31-4.35-2.63-5.15-3.97L516,204.15z M519.58,199.17
		c1.19-0.56,2.58-1.06,4.18-1.48l1.64-0.64c-0.6-0.21-2.24,0.07-4.92,0.85c-1.19,0.35-1.94,0.74-2.24,1.17
		c-0.3,0.42-0.4,0.67-0.3,0.74L519.58,199.17z M518.83,234.98h0.75c-0.1-0.14-0.6-0.18-1.49-0.11
		C518.38,234.94,518.63,234.98,518.83,234.98z M533.75,234.34c0-0.07-0.55-0.04-1.64,0.11c-1.09,0.14-2.31,0.32-3.65,0.53
		s-2.36,0.39-3.06,0.53c-0.2,0.07-1.94,0.39-5.22,0.95c2.68,0.35,5.62,0.14,8.8-0.63C532.15,235.05,533.75,234.55,533.75,234.34z
		 M520.92,234.77c0.2,0,0.4,0,0.6,0l-0.3-0.11c-0.2,0-0.4,0-0.6,0C520.72,234.73,520.82,234.77,520.92,234.77z M532.85,196.1
		c-0.2-0.14-1.34-0.6-3.43-1.38c-0.4,0.07-0.85,0.16-1.34,0.26c-0.5,0.11-1,0.2-1.49,0.26c-0.5,0.07-0.95,0.14-1.34,0.21
		c3.78,0.35,5.82,0.57,6.12,0.64c1.09,0.21,1.64,0.28,1.64,0.21L532.85,196.1z M527.78,198.33l2.83,0.21l2.83-0.21
		c-1.59-0.28-3.38-0.28-5.37,0C527.98,198.33,527.88,198.33,527.78,198.33z M532.55,219.94c-0.4-0.07-0.82-0.18-1.27-0.32
		c-0.45-0.14-0.8-0.25-1.04-0.32c-0.25-0.07-0.4-0.11-0.45-0.11c-0.05,0,0.45,0.41,1.49,1.22c1.04,0.81,2.16,1.82,3.36,3.02
		c1.19,1.2,1.79,2.16,1.79,2.86c0,0.49,0.69,0.11,2.09-1.17c0.2-0.21,0.35-0.39,0.45-0.53c0.1-0.14,0.02-0.41-0.22-0.79
		c-0.25-0.39-0.62-0.81-1.12-1.27c-0.5-0.46-1.19-0.92-2.09-1.38C534.64,220.7,533.65,220.29,532.55,219.94z M535.83,230.85
		c0,0.21,0.6,0,1.79-0.64c0.4-0.21,0.72-0.46,0.97-0.74c0.25-0.28,0.45-0.55,0.6-0.79c0.15-0.25,0.27-0.51,0.37-0.79
		c0.1-0.28,0.15-0.51,0.15-0.69c0-0.18,0-0.41,0-0.69c-0.1,0-0.45,0.21-1.04,0.63s-1.04,0.81-1.34,1.17c-0.3,0.35-0.5,0.71-0.6,1.06
		c-0.2,0.64-0.4,1.02-0.6,1.17C535.93,230.67,535.83,230.78,535.83,230.85z M542.4,229.36c0.2-0.21,0.27-0.81,0.22-1.8
		c-0.05-0.99-0.17-1.69-0.37-2.12c-0.2-0.49-0.3-0.42-0.3,0.21c0,0.28,0,0.78,0,1.48c0,1.7,0.05,2.54,0.15,2.54L542.4,229.36z"/>
</g>
</svg>
