<svg version="1.1" xmlns="http://www.w3.org/2000/svg" xmlns:xlink="http://www.w3.org/1999/xlink" x="0px" y="0px"
	 viewBox="0 0 242 241" style="enable-background:new 0 0 242 241;" xml:space="preserve">
<style type="text/css">
	.st0{fill:#FFFFFF;}
	.st1{fill:#548D95;}
</style>
<g>
	<rect x="0.3" y="-0.2" width="241.4" height="241.4"/>
	<path class="st0" d="M49.09,87.94h16.4l12.14,65.11H64.36l-2.17-13.75h-9.57l-2.25,13.75H36.79L49.09,87.94z M60.82,130.71
		l-3.46-25.4l-3.46,25.4H60.82z"/>
	<path class="st0" d="M84.21,87.94h21.87c11.66,0,17.12,6.83,17.12,18.89c0,15.03-8.28,18.57-18.81,18.57H98.6v27.65H84.21V87.94z
		 M103.43,115.36c5.31,0,6.27-2.81,6.27-8.76c0-4.9-0.56-8.52-6.35-8.52H98.6v17.28H103.43z"/>
	<path class="st0" d="M130.11,87.94h29.26v9.81H144.5v16.16h11.34v9.97H144.5v19.45h15.03v9.73h-29.42V87.94z"/>
	<path class="st0" d="M173.68,153.06h-11.9l12.62-35.05l-12.06-30.07h13.59l13.51,33.84L173.68,153.06z"/>
	<polygon class="st1" points="190.58,103.6 195.73,87.94 206.38,87.94 196.23,118.04 	"/>
	<polygon class="st1" points="196.23,122.96 206.38,153.06 195.73,153.06 189.99,135.6 	"/>
</g>
</svg>
