<svg version="1.1" xmlns="http://www.w3.org/2000/svg" xmlns:xlink="http://www.w3.org/1999/xlink" x="0px" y="0px"
	 viewBox="0 0 242 241" style="enable-background:new 0 0 242 241;" xml:space="preserve">
<style type="text/css">
	.st0{fill:#548D95;}
	.st1{fill:#FFFFFF;}
</style>
<g>
	<rect x="0.38" y="-0.41" class="st0" width="241.4" height="241.4"/>
	<g>
		<path class="st1" d="M46.43,87.74h16.4l12.14,65.11H61.71l-2.17-13.75h-9.57l-2.25,13.75H34.13L46.43,87.74z M58.17,130.51
			l-3.46-25.4l-3.46,25.4H58.17z"/>
		<path class="st1" d="M81.56,87.74h21.87c11.66,0,17.12,6.83,17.12,18.89c0,15.03-8.28,18.57-18.81,18.57h-5.79v27.65H81.56V87.74z
			 M100.77,115.15c5.31,0,6.27-2.81,6.27-8.76c0-4.9-0.56-8.52-6.35-8.52h-4.74v17.28H100.77z"/>
		<path class="st1" d="M127.46,87.74h29.26v9.81h-14.87v16.16h11.34v9.97h-11.34v19.45h15.03v9.73h-29.42V87.74z"/>
		<path class="st1" d="M171.03,152.85h-11.9l12.62-35.05L159.7,87.74h13.59l13.51,33.84L171.03,152.85z"/>
		<polygon points="187.93,103.39 193.07,87.74 203.73,87.74 193.57,117.84 		"/>
		<polygon points="193.57,122.76 203.73,152.85 193.07,152.85 187.34,135.4 		"/>
	</g>
</g>
</svg>
