<svg version="1.1" xmlns="http://www.w3.org/2000/svg" xmlns:xlink="http://www.w3.org/1999/xlink" x="0px" y="0px"
	 viewBox="0 0 242 241" style="enable-background:new 0 0 242 241;" xml:space="preserve">
<style type="text/css">
	.st0{fill:#FFFFFF;}
	.st1{fill:#1D1D1B;}
	.st2{fill:#548D95;}
</style>
<g>
	<rect x="0.38" y="-0.41" class="st0" width="241.4" height="241.4"/>
	<path class="st1" d="M47.98,85.4h16.4l12.14,65.11H63.26l-2.17-13.75h-9.57l-2.25,13.75H35.69L47.98,85.4z M59.72,128.17
		l-3.46-25.4l-3.46,25.4H59.72z"/>
	<path class="st1" d="M83.11,85.4h21.87c11.66,0,17.12,6.83,17.12,18.89c0,15.03-8.28,18.57-18.81,18.57H97.5v27.65H83.11V85.4z
		 M102.33,112.81c5.31,0,6.27-2.81,6.27-8.76c0-4.9-0.56-8.52-6.35-8.52H97.5v17.28H102.33z"/>
	<path class="st1" d="M129.01,85.4h29.26v9.81H143.4v16.16h11.34v9.97H143.4v19.45h15.03v9.73h-29.42V85.4z"/>
	<path class="st1" d="M172.58,150.52h-11.9l12.62-35.05L161.25,85.4h13.59l13.51,33.84L172.58,150.52z"/>
	<polygon class="st2" points="189.48,101.06 194.63,85.4 205.28,85.4 195.13,115.5 	"/>
	<polygon class="st2" points="195.13,120.42 205.28,150.52 194.63,150.52 188.89,133.06 	"/>
</g>
</svg>
