<?xml version="1.0" encoding="utf-8"?>
<!-- Generator: Adobe Illustrator 26.3.1, SVG Export Plug-In . SVG Version: 6.00 Build 0)  -->
<svg version="1.1" id="Ebene_1" xmlns="http://www.w3.org/2000/svg" xmlns:xlink="http://www.w3.org/1999/xlink" x="0px" y="0px"
	 viewBox="0 0 16 16" style="enable-background:new 0 0 16 16;" xml:space="preserve">
<path d="M4.4,2.2c0-0.7,0.6-1.3,1.3-1.3h1.3v2.2c0,0.2,0.2,0.4,0.4,0.4h0.9c0.2,0,0.4-0.2,0.4-0.4V0.9h1.3c0.7,0,1.3,0.6,1.3,1.3
	v3.6c0,0.7-0.6,1.3-1.3,1.3H5.8C5,7.1,4.4,6.5,4.4,5.8V2.2z M2.7,8.9v2.2c0,0.2,0.2,0.4,0.4,0.4H4c0.2,0,0.4-0.2,0.4-0.4V8.9h1.3
	c0.7,0,1.3,0.6,1.3,1.3v3.6c0,0.7-0.6,1.3-1.3,1.3H1.3c-0.7,0-1.3-0.6-1.3-1.3v-3.6c0-0.7,0.6-1.3,1.3-1.3H2.7z M11.6,8.9v2.2
	c0,0.2,0.2,0.4,0.4,0.4h0.9c0.2,0,0.4-0.2,0.4-0.4V8.9h1.3c0.7,0,1.3,0.6,1.3,1.3v3.6c0,0.7-0.6,1.3-1.3,1.3h-4.4
	c-0.7,0-1.3-0.6-1.3-1.3v-3.6c0-0.7,0.6-1.3,1.3-1.3H11.6z"/>
</svg>
