<svg xmlns="http://www.w3.org/2000/svg" viewBox="0 0 16 16"><path d="M4.4 2.2c0-.7.6-1.3 1.3-1.3H7v2.2c0 .2.2.4.4.4h.9c.2 0 .4-.2.4-.4V.9H10c.7 0 1.3.6 1.3 1.3v3.6c0 .7-.6 1.3-1.3 1.3H5.8c-.8 0-1.4-.6-1.4-1.3V2.2zM2.7 8.9v2.2c0 .2.2.4.4.4H4c.2 0 .4-.2.4-.4V8.9h1.3c.7 0 1.3.6 1.3 1.3v3.6c0 .7-.6 1.3-1.3 1.3H1.3c-.7 0-1.3-.6-1.3-1.3v-3.6c0-.7.6-1.3 1.3-1.3h1.4zm8.9 0v2.2c0 .2.2.4.4.4h.9c.2 0 .4-.2.4-.4V8.9h1.3c.7 0 1.3.6 1.3 1.3v3.6c0 .7-.6 1.3-1.3 1.3h-4.4c-.7 0-1.3-.6-1.3-1.3v-3.6c0-.7.6-1.3 1.3-1.3h1.4z"/></svg>