<?xml version="1.0" encoding="utf-8"?>
<!-- Generator: Adobe Illustrator 26.3.1, SVG Export Plug-In . SVG Version: 6.00 Build 0)  -->
<svg version="1.1" id="Ebene_1" xmlns="http://www.w3.org/2000/svg" xmlns:xlink="http://www.w3.org/1999/xlink" x="0px" y="0px"
	 viewBox="0 0 16 16" style="enable-background:new 0 0 16 16;" xml:space="preserve">
<path d="M1.8,0h5.4c0.6,0,1.2,0.2,1.6,0.7l6.4,6.4c0.9,0.9,0.9,2.4,0,3.3l-4.9,4.9c-0.9,0.9-2.4,0.9-3.3,0L0.7,8.8
	c-0.4-0.4-0.7-1-0.7-1.6V1.7C0.1,0.8,0.8,0,1.8,0L1.8,0z M4.1,5.2c0.6,0,1.2-0.5,1.2-1.2S4.8,2.9,4.1,2.9C3.5,2.9,3,3.4,3,4.1
	S3.5,5.2,4.1,5.2z"/>
</svg>
