<?xml version="1.0" encoding="utf-8"?>
<!-- Generator: Adobe Illustrator 26.1.0, SVG Export Plug-In . SVG Version: 6.00 Build 0)  -->
<svg version="1.1" id="Ebene_1" xmlns="http://www.w3.org/2000/svg" x="0px" y="0px"
	 viewBox="0 0 504.33 321.71" style="enable-background:new 0 0 504.33 321.71;" xml:space="preserve">
<path d="M259.14,314.52c-1.59-2.2-3.17-4.41-6-8.33c6.58-1.18,11.95-2.13,18.85-3.37c-4.81-0.52-8.43-0.91-12.42-1.35
	c-1.48-4.06-3.02-8.27-3.51-9.64c8.33-14.69,16.32-27.41,22.95-40.81c10.35-20.94,17.68-43.69,30.26-63.1
	c9.45-14.56,5.15-25.21-0.63-37.45c-15.2-32.17-30.39-64.34-46.08-96.27c-3.43-6.98-9.14-12.8-13.42-19.4
	c-5.08-7.85-10.24-15.75-14.09-24.21c-0.58-1.28,5.57-8.07,8.84-8.26C259,1.49,274.2,2.22,289.37,2.03
	c5.36-0.07,12.09-3.49,15.78-1.3c9.53,5.66,20.95,11.85,25.82,20.93c14.23,26.52,25.62,54.56,38.05,81.84
	c18.61-28.29,38.01-57.76,57.85-87.92c-1.91-2.37-5.55-6.89-8.82-10.94c27.59,0,54.37,0,80.27,0
	c-12.07,24.89-22.98,48.6-35.01,71.73c-6.6,12.68-15.12,24.35-22.74,36.5c-4.17,6.66-7.89,13.65-12.51,19.97
	c-4.48,6.13-5.51,11.3-0.41,17.8c16.52,21.05,23.76,46.31,31.8,71.27c5.6,17.38,12.58,34.3,18.46,51.6
	c0.66,1.93-1.84,4.93-2.84,7.33c-17.13-10.65-23.7-27.71-28.36-45.33c-7.73-29.22-17.57-57.49-32.68-83.74
	c-3.76-6.53-2.67-11.09,1.41-17.8c11.98-19.68,22.06-40.51,33.21-60.7c8.68-15.73,17.85-31.19,27.09-47.27
	c-10.94-2.09-21.21-4.66-31.63-5.68c-3.21-0.31-8.34,2.74-10.02,5.71c-8.1,14.26-14.94,29.23-22.97,43.53
	c-7.89,14.03-16.4,27.74-25.28,41.17c-2.19,3.31-6.88,4.96-12.02,8.46c1.15,2.85,3.61,8.99,6.2,15.46
	c-30.13-10.53-31.74-39.69-43.66-61.75c-10.12-18.74-19.67-37.79-29.78-56.54c-1.39-2.58-4.48-5.96-6.84-6.01
	c-16.57-0.34-33.15,0.05-49.72,0.38c-0.96,0.02-1.89,1.49-3.9,3.19c32.2,45.02,52.74,96.09,73.79,146.9
	c5.64-2.72,10.61-5.13,15.57-7.53c1.05,0.65,2.1,1.3,3.15,1.96c-25.33,43.71-35.16,94.73-67.85,136.37c14.72,0,29.01,0.3,43.26-0.28
	c2.53-0.1,5.66-3.48,7.24-6.11c15.21-25.42,29.99-51.09,45.33-76.43c2.05-3.38,6.67-7.52,9.85-7.31c3.91,0.25,8.99,3.86,11.05,7.45
	c8.36,14.59,15.82,29.71,23.43,44.72c1.19,2.34,2.52,5.45,1.93,7.73c-4.29,16.79,9.91,31.97,28.04,30.17
	c13.79-1.37,27.66-1.89,44.41-2.98c-3.34,4.76-4.28,7.75-6,8.31c-17.29,5.62-34.86,12.2-52.96,4.51
	c-5.96-2.53-12.41-7.57-15.22-13.18c-8.52-16.99-15.11-34.94-22.97-52.28c-3.37-7.42-8.01-14.26-13.24-23.4
	c-7,19.7-13.15,36.95-19.24,54.22c-3.15,8.94-4.62,18.94-9.65,26.63c-7.32,11.19-20.55,13.08-33,15.14
	c-11.33,1.88-22.62,3.98-33.92,5.99C272.45,314.52,265.8,314.52,259.14,314.52z"/>
<path d="M204.96,171.44c2.22-2.96,4.43-5.92,6.65-8.88c-7.05,40.28-18.57,78.66-43.94,111.14c-9.51,12.18-20.13,23.96-37.34,25.86
	c-3.08,0.34-6.01,2.61-8.87,4.22c-5.48,3.1-10.12,6.65-15.99-0.7c-2.35-2.94-9.01-2.73-13.78-3.39c-9.05-1.26-18.14-2.31-27.24-3.01
	c-3.3-0.25-6.7,0.75-12.9,1.55c-5.35-8.36-9.92-20.25-18.36-27.8C7.8,247.7,11.63,214.81,2.11,186.74
	c-3.39-9.99-2.18-22.55,0.11-33.25c4.24-19.82,3.92-40.14,10.47-59.9C19.84,72,33,55.92,47.17,39.23
	C65.53,17.61,89.95,7.18,115.72,2.06c33.35-6.63,64.6,12.03,80.15,43.62c6.02,12.23,10.44,25.23,15.6,37.89
	c-1.09,0.67-2.18,1.33-3.27,2c-2.4-1.17-4.8-2.34-5.67-2.77c0,29.17,0,58.28,0,87.4C203.33,170.6,204.15,171.02,204.96,171.44z
	 M153.58,239.25c6.87-10.41,12.79-17.02,16.06-24.75c11.77-27.78,16.77-57.08,17.93-87.18c1.05-27.2-5.68-52.46-21.64-74.06
	c-8.93-12.09-21.33-21.94-33.34-31.28c-6.59-5.12-15.62-7.03-22.06,3.09c-0.96-3.12-1.5-4.86-2.77-9
	C96.05,27.21,85.69,37.06,75.32,46.92c-0.79-0.94-1.58-1.89-2.37-2.83c4.15-6.93,8.3-13.87,12.45-20.8
	c-0.77-0.68-1.53-1.37-2.3-2.05c-8.62,10.48-17.23,20.97-25.85,31.45c-0.39-0.31-0.77-0.62-1.16-0.92
	c2.33-5.09,4.65-10.19,6.98-15.28c-1.01-0.52-2.01-1.04-3.02-1.56C44.76,49.21,36.3,67.95,28.14,86.88
	c10.09,6.02,10.13,9.34,0.56,16.54c-3.57,2.68-8.09,5.57-9.49,9.36c-2.78,7.55-4.11,15.72-5.27,23.75
	c-0.84,5.89-0.83,11.99-0.36,17.94c0.13,1.72,3.14,3.21,5.49,5.43c-3.36,0.46-6.41,0.88-7.39,1.01c0.94,10.51,1.74,20.29,2.69,30.05
	c1.22,12.53,0.29,25.85,4.34,37.41c6.85,19.56,17.67,36.56,36.15,49.06c17.31,11.71,29.15,13.25,43.43-1.42
	c2.11-2.17,4.67-3.9,7.02-5.84c0.45,0.46,0.89,0.91,1.34,1.37c-3.15,4.1-6.29,8.21-9.44,12.31c0.83,0.81,1.65,1.63,2.48,2.44
	c3.58-2.78,7.15-5.56,11.12-8.65c6.11,5.72,11.35,5.64,15.63-3.04c2.15-4.36,5.89-7.91,8.72-11.96c5.66-8.1,11.18-16.3,16.76-24.46
	c1.11,0.69,2.21,1.39,3.32,2.08c-4.35,6.63-8.71,13.26-13.06,19.89c0.94,0.61,1.89,1.22,2.83,1.83c6.39-9.2,12.77-18.39,21.16-30.47
	C160.85,234.79,158.79,236.05,153.58,239.25z"/>
<path d="M70.82,158.31c4.83-14.19,1.13-28.81,12.22-40.86c8.59-9.33,19.86-16.24,29.2-12.81c8.66,3.18,16.2,15.21,19.88,24.99
	c7.94,21.08,3.42,41.11-12.43,57.83c-4.58,4.84-8.77,11.49-14.48,13.51c-9.75,3.44-23.16-5.89-28.04-18.45
	C74.08,174.58,72.76,165.94,70.82,158.31z M113,187.14c13.29-24.05,23.86-47.24,1.33-72.12c-7.18,10.6-15.27,21.31-17.09,32.99
	c-1.62,10.36,3.18,21.97,6.35,32.68C104.42,183.51,109.71,185.01,113,187.14z"/>
<path d="M47.76,74.71c1.48-6.09,2.96-12.17,5.15-21.17C60.97,65.08,60.97,65.08,47.76,74.71z"/>
</svg>
