<svg xmlns="http://www.w3.org/2000/svg" width="16" height="16"><path d="M9.2 1.6c.7 0 1.2.5 1.2 1.2V4h1.3c.4 0 .8.2 1.1.5l1.9 1.9c.3.3.5.7.5 1.1v2.9c.4 0 .8.4.8.8s-.4.8-.8.8h-.8c0 1.3-1.1 2.4-2.4 2.4-1.3 0-2.4-1.1-2.4-2.4H6.4c0 1.3-1.1 2.4-2.4 2.4-1.3 0-2.4-1.1-2.4-2.4h-.4C.5 12 0 11.5 0 10.8v-8c0-.7.5-1.2 1.2-1.2h8zm1.2 4V8h3.2v-.5l-1.9-1.9h-1.3zM4 10.8c-.7 0-1.2.5-1.2 1.2s.5 1.2 1.2 1.2 1.2-.5 1.2-1.2-.5-1.2-1.2-1.2zm8 2.4c.7 0 1.2-.5 1.2-1.2s-.5-1.2-1.2-1.2-1.2.5-1.2 1.2.5 1.2 1.2 1.2z"/></svg>